M48
; DRILL file {KiCad 8.0.5} date 2025-02-27T19:12:57+0200
; FORMAT={-:-/ absolute / metric / decimal}
; #@! TF.CreationDate,2025-02-27T19:12:57+02:00
; #@! TF.GenerationSoftware,Kicad,Pcbnew,8.0.5
; #@! TF.FileFunction,MixedPlating,1,2
FMAT,2
METRIC
; #@! TA.AperFunction,Plated,PTH,ComponentDrill
T1C0.200
; #@! TA.AperFunction,Plated,PTH,ViaDrill
T2C0.300
; #@! TA.AperFunction,Plated,PTH,ComponentDrill
T3C0.500
; #@! TA.AperFunction,Plated,PTH,ComponentDrill
T4C1.000
; #@! TA.AperFunction,Plated,PTH,ComponentDrill
T5C3.200
%
G90
G05
T1
X91.85Y-70.0
X91.85Y-71.15
X93.0Y-70.0
X93.0Y-71.15
T2
X83.125Y-78.15
X85.475Y-66.475
X85.5Y-70.1
X86.8Y-74.0
X87.5Y-67.0
X87.5Y-70.0
X88.6Y-65.4
X88.7Y-78.1
X90.2Y-73.9
X91.5Y-67.7
X91.8Y-75.565
X94.0Y-73.3
X95.3Y-73.1
X95.3Y-75.7
X95.3Y-79.925
X95.985Y-70.985
T3
X77.6Y-56.1
X77.6Y-83.7
X78.303Y-54.403
X78.303Y-57.797
X78.303Y-82.003
X78.303Y-85.397
X80.0Y-53.7
X80.0Y-58.5
X80.0Y-81.3
X80.0Y-86.1
X81.697Y-54.403
X81.697Y-57.797
X81.697Y-82.003
X81.697Y-85.397
X82.4Y-56.1
X82.4Y-83.7
X98.4Y-56.1
X98.4Y-83.8
X99.103Y-54.403
X99.103Y-57.797
X99.103Y-82.103
X99.103Y-85.497
X100.8Y-53.7
X100.8Y-58.5
X100.8Y-81.4
X100.8Y-86.2
X102.497Y-54.403
X102.497Y-57.797
X102.497Y-82.103
X102.497Y-85.497
X103.2Y-56.1
X103.2Y-83.8
T4
X79.4Y-63.66
X79.4Y-66.2
X79.4Y-68.74
X79.4Y-71.28
X79.4Y-73.82
X79.4Y-76.36
X101.175Y-70.71
X101.175Y-73.25
T5
X80.0Y-56.1
X80.0Y-83.7
X100.8Y-56.1
X100.8Y-83.8
M30
