%TF.GenerationSoftware,KiCad,Pcbnew,8.0.5*%
%TF.CreationDate,2025-02-27T19:14:31+02:00*%
%TF.ProjectId,_autosave-QS390,5f617574-6f73-4617-9665-2d5153333930,rev?*%
%TF.SameCoordinates,Original*%
%TF.FileFunction,Copper,L2,Bot*%
%TF.FilePolarity,Positive*%
%FSLAX46Y46*%
G04 Gerber Fmt 4.6, Leading zero omitted, Abs format (unit mm)*
G04 Created by KiCad (PCBNEW 8.0.5) date 2025-02-27 19:14:31*
%MOMM*%
%LPD*%
G01*
G04 APERTURE LIST*
%TA.AperFunction,ComponentPad*%
%ADD10R,1.700000X1.700000*%
%TD*%
%TA.AperFunction,ComponentPad*%
%ADD11O,1.700000X1.700000*%
%TD*%
%TA.AperFunction,ComponentPad*%
%ADD12C,0.800000*%
%TD*%
%TA.AperFunction,ComponentPad*%
%ADD13C,6.400000*%
%TD*%
%TA.AperFunction,HeatsinkPad*%
%ADD14C,0.500000*%
%TD*%
%TA.AperFunction,HeatsinkPad*%
%ADD15R,1.650000X1.650000*%
%TD*%
%TA.AperFunction,ViaPad*%
%ADD16C,0.600000*%
%TD*%
%TA.AperFunction,Conductor*%
%ADD17C,0.300000*%
%TD*%
%TA.AperFunction,Conductor*%
%ADD18C,0.200000*%
%TD*%
G04 APERTURE END LIST*
D10*
%TO.P,J1,1,Pin_1*%
%TO.N,+3V3*%
X79400000Y-63660000D03*
D11*
%TO.P,J1,2,Pin_2*%
%TO.N,/SDA*%
X79400000Y-66200000D03*
%TO.P,J1,3,Pin_3*%
%TO.N,/SCL*%
X79400000Y-68740000D03*
%TO.P,J1,4,Pin_4*%
%TO.N,/MCLR*%
X79400000Y-71280000D03*
%TO.P,J1,5,Pin_5*%
%TO.N,/ADDR-PWM*%
X79400000Y-73820000D03*
%TO.P,J1,6,Pin_6*%
%TO.N,GND*%
X79400000Y-76360000D03*
%TD*%
D12*
%TO.P,H3,1,1*%
%TO.N,GND*%
X77600000Y-83700000D03*
X78302944Y-82002944D03*
X78302944Y-85397056D03*
X80000000Y-81300000D03*
D13*
X80000000Y-83700000D03*
D12*
X80000000Y-86100000D03*
X81697056Y-82002944D03*
X81697056Y-85397056D03*
X82400000Y-83700000D03*
%TD*%
%TO.P,H4,1,1*%
%TO.N,GND*%
X98400000Y-83800000D03*
X99102944Y-82102944D03*
X99102944Y-85497056D03*
X100800000Y-81400000D03*
D13*
X100800000Y-83800000D03*
D12*
X100800000Y-86200000D03*
X102497056Y-82102944D03*
X102497056Y-85497056D03*
X103200000Y-83800000D03*
%TD*%
%TO.P,H2,1,1*%
%TO.N,GND*%
X98400000Y-56100000D03*
X99102944Y-54402944D03*
X99102944Y-57797056D03*
X100800000Y-53700000D03*
D13*
X100800000Y-56100000D03*
D12*
X100800000Y-58500000D03*
X102497056Y-54402944D03*
X102497056Y-57797056D03*
X103200000Y-56100000D03*
%TD*%
%TO.P,H1,1,1*%
%TO.N,GND*%
X77600000Y-56100000D03*
X78302944Y-54402944D03*
X78302944Y-57797056D03*
X80000000Y-53700000D03*
D13*
X80000000Y-56100000D03*
D12*
X80000000Y-58500000D03*
X81697056Y-54402944D03*
X81697056Y-57797056D03*
X82400000Y-56100000D03*
%TD*%
D10*
%TO.P,J2,1,Pin_1*%
%TO.N,Net-(J2-Pin_1)*%
X101175000Y-73250000D03*
D11*
%TO.P,J2,2,Pin_2*%
%TO.N,Net-(J2-Pin_2)*%
X101175000Y-70710000D03*
%TD*%
D14*
%TO.P,U1,21,EP*%
%TO.N,GND*%
X91850000Y-70000000D03*
X91850000Y-71150000D03*
D15*
X92425000Y-70575000D03*
D14*
X93000000Y-70000000D03*
X93000000Y-71150000D03*
%TD*%
D16*
%TO.N,GND*%
X88700000Y-78100000D03*
X91800000Y-75565000D03*
X95985000Y-70985000D03*
X83125000Y-78150000D03*
X94000000Y-73300000D03*
X91500000Y-67700000D03*
X95300000Y-79925000D03*
%TO.N,+3V3*%
X90200000Y-73900000D03*
X86800000Y-74000000D03*
X88600000Y-65400000D03*
%TO.N,/SDA*%
X87500000Y-67000000D03*
X87500000Y-70000000D03*
%TO.N,/SCL*%
X85500000Y-70100000D03*
X85475000Y-66475000D03*
%TO.N,Net-(U1-MODE_SEL)*%
X95300000Y-73100000D03*
X95300000Y-75700000D03*
%TD*%
D17*
%TO.N,+3V3*%
X88600000Y-65400000D02*
X88600000Y-72900000D01*
X88600000Y-72900000D02*
X89200000Y-72900000D01*
X86800000Y-74000000D02*
X87900000Y-72900000D01*
X89200000Y-72900000D02*
X90200000Y-73900000D01*
X87900000Y-72900000D02*
X88600000Y-72900000D01*
D18*
%TO.N,/SDA*%
X87500000Y-67000000D02*
X87500000Y-70000000D01*
%TO.N,/SCL*%
X85475000Y-66475000D02*
X85475000Y-70075000D01*
X85475000Y-70075000D02*
X85500000Y-70100000D01*
D17*
%TO.N,Net-(U1-MODE_SEL)*%
X95300000Y-75700000D02*
X95300000Y-73100000D01*
%TD*%
%TA.AperFunction,Conductor*%
%TO.N,GND*%
G36*
X101456773Y-52559644D02*
G01*
X101731743Y-52621928D01*
X101743197Y-52625107D01*
X102051764Y-52726988D01*
X102062858Y-52731252D01*
X102360203Y-52862281D01*
X102370847Y-52867596D01*
X102654229Y-53026560D01*
X102664332Y-53032884D01*
X102931136Y-53218315D01*
X102940585Y-53225580D01*
X103188353Y-53435769D01*
X103197060Y-53443907D01*
X103423494Y-53676902D01*
X103431380Y-53685838D01*
X103634420Y-53939521D01*
X103641408Y-53949169D01*
X103794879Y-54184025D01*
X103819141Y-54221152D01*
X103825174Y-54231431D01*
X103975975Y-54519226D01*
X103980993Y-54530036D01*
X104103470Y-54830984D01*
X104107427Y-54842227D01*
X104200443Y-55153540D01*
X104203302Y-55165110D01*
X104266000Y-55483905D01*
X104267736Y-55495697D01*
X104298879Y-55812359D01*
X104299474Y-55824621D01*
X104271082Y-84044784D01*
X104270196Y-84059455D01*
X104231525Y-84381224D01*
X104229435Y-84393430D01*
X104156440Y-84720596D01*
X104153143Y-84732533D01*
X104047882Y-85050778D01*
X104043411Y-85062326D01*
X103906923Y-85368505D01*
X103901323Y-85379550D01*
X103734986Y-85670573D01*
X103728312Y-85681004D01*
X103533772Y-85953991D01*
X103526090Y-85963705D01*
X103305294Y-86215923D01*
X103296682Y-86224821D01*
X103051828Y-86453761D01*
X103042372Y-86461757D01*
X102775902Y-86665135D01*
X102765695Y-86672147D01*
X102480269Y-86847931D01*
X102469413Y-86853890D01*
X102167888Y-87000322D01*
X102156493Y-87005169D01*
X101841851Y-87120802D01*
X101830028Y-87124488D01*
X101552914Y-87195919D01*
X101522524Y-87199843D01*
X79549143Y-87299271D01*
X79527486Y-87297464D01*
X79211884Y-87242977D01*
X79199883Y-87240286D01*
X78864796Y-87147481D01*
X78853121Y-87143615D01*
X78528870Y-87018070D01*
X78517635Y-87013066D01*
X78207415Y-86856018D01*
X78196732Y-86849926D01*
X77903604Y-86662926D01*
X77893576Y-86655806D01*
X77620401Y-86440679D01*
X77611128Y-86432600D01*
X77360613Y-86191475D01*
X77352186Y-86182517D01*
X77126791Y-85917765D01*
X77119293Y-85908017D01*
X76921233Y-85622239D01*
X76914737Y-85611796D01*
X76745954Y-85307794D01*
X76740525Y-85296758D01*
X76602692Y-84977541D01*
X76598383Y-84966022D01*
X76513471Y-84699460D01*
X76507621Y-84661855D01*
X76507555Y-84393430D01*
X76503065Y-66199999D01*
X78044341Y-66199999D01*
X78044341Y-66200000D01*
X78064936Y-66435403D01*
X78064938Y-66435413D01*
X78126094Y-66663655D01*
X78126096Y-66663659D01*
X78126097Y-66663663D01*
X78225965Y-66877830D01*
X78225967Y-66877834D01*
X78361501Y-67071395D01*
X78361506Y-67071402D01*
X78528597Y-67238493D01*
X78528603Y-67238498D01*
X78714158Y-67368425D01*
X78757783Y-67423002D01*
X78764977Y-67492500D01*
X78733454Y-67554855D01*
X78714158Y-67571575D01*
X78528597Y-67701505D01*
X78361505Y-67868597D01*
X78225965Y-68062169D01*
X78225964Y-68062171D01*
X78126098Y-68276335D01*
X78126094Y-68276344D01*
X78064938Y-68504586D01*
X78064936Y-68504596D01*
X78044341Y-68739999D01*
X78044341Y-68740000D01*
X78064936Y-68975403D01*
X78064938Y-68975413D01*
X78126094Y-69203655D01*
X78126096Y-69203659D01*
X78126097Y-69203663D01*
X78154315Y-69264176D01*
X78225965Y-69417830D01*
X78225967Y-69417834D01*
X78361501Y-69611395D01*
X78361506Y-69611402D01*
X78528597Y-69778493D01*
X78528603Y-69778498D01*
X78714158Y-69908425D01*
X78757783Y-69963002D01*
X78764977Y-70032500D01*
X78733454Y-70094855D01*
X78714158Y-70111575D01*
X78528597Y-70241505D01*
X78361505Y-70408597D01*
X78225965Y-70602169D01*
X78225964Y-70602171D01*
X78126098Y-70816335D01*
X78126094Y-70816344D01*
X78064938Y-71044586D01*
X78064936Y-71044596D01*
X78044341Y-71279999D01*
X78044341Y-71280000D01*
X78064936Y-71515403D01*
X78064938Y-71515413D01*
X78126094Y-71743655D01*
X78126096Y-71743659D01*
X78126097Y-71743663D01*
X78201754Y-71905909D01*
X78225965Y-71957830D01*
X78225967Y-71957834D01*
X78361501Y-72151395D01*
X78361506Y-72151402D01*
X78528597Y-72318493D01*
X78528603Y-72318498D01*
X78714158Y-72448425D01*
X78757783Y-72503002D01*
X78764977Y-72572500D01*
X78733454Y-72634855D01*
X78714158Y-72651575D01*
X78528597Y-72781505D01*
X78361505Y-72948597D01*
X78225965Y-73142169D01*
X78225964Y-73142171D01*
X78126098Y-73356335D01*
X78126094Y-73356344D01*
X78064938Y-73584586D01*
X78064936Y-73584596D01*
X78044341Y-73819999D01*
X78044341Y-73820000D01*
X78064936Y-74055403D01*
X78064938Y-74055413D01*
X78126094Y-74283655D01*
X78126096Y-74283659D01*
X78126097Y-74283663D01*
X78156808Y-74349522D01*
X78225965Y-74497830D01*
X78225967Y-74497834D01*
X78297855Y-74600500D01*
X78357281Y-74685369D01*
X78361501Y-74691395D01*
X78361506Y-74691402D01*
X78528597Y-74858493D01*
X78528603Y-74858498D01*
X78714594Y-74988730D01*
X78758219Y-75043307D01*
X78765413Y-75112805D01*
X78733890Y-75175160D01*
X78714595Y-75191880D01*
X78528922Y-75321890D01*
X78528920Y-75321891D01*
X78361891Y-75488920D01*
X78361886Y-75488926D01*
X78226400Y-75682420D01*
X78226399Y-75682422D01*
X78126570Y-75896507D01*
X78126567Y-75896513D01*
X78069364Y-76109999D01*
X78069364Y-76110000D01*
X78966988Y-76110000D01*
X78934075Y-76167007D01*
X78900000Y-76294174D01*
X78900000Y-76425826D01*
X78934075Y-76552993D01*
X78966988Y-76610000D01*
X78069364Y-76610000D01*
X78126567Y-76823486D01*
X78126570Y-76823492D01*
X78226399Y-77037578D01*
X78361894Y-77231082D01*
X78528917Y-77398105D01*
X78722421Y-77533600D01*
X78936507Y-77633429D01*
X78936516Y-77633433D01*
X79150000Y-77690634D01*
X79150000Y-76793012D01*
X79207007Y-76825925D01*
X79334174Y-76860000D01*
X79465826Y-76860000D01*
X79592993Y-76825925D01*
X79650000Y-76793012D01*
X79650000Y-77690633D01*
X79863483Y-77633433D01*
X79863492Y-77633429D01*
X80077578Y-77533600D01*
X80271082Y-77398105D01*
X80438105Y-77231082D01*
X80573600Y-77037578D01*
X80673429Y-76823492D01*
X80673432Y-76823486D01*
X80730636Y-76610000D01*
X79833012Y-76610000D01*
X79865925Y-76552993D01*
X79900000Y-76425826D01*
X79900000Y-76294174D01*
X79865925Y-76167007D01*
X79833012Y-76110000D01*
X80730636Y-76110000D01*
X80730635Y-76109999D01*
X80673432Y-75896513D01*
X80673429Y-75896507D01*
X80573600Y-75682422D01*
X80573599Y-75682420D01*
X80438113Y-75488926D01*
X80438108Y-75488920D01*
X80271078Y-75321890D01*
X80085405Y-75191879D01*
X80041780Y-75137302D01*
X80034588Y-75067804D01*
X80066110Y-75005449D01*
X80085406Y-74988730D01*
X80271401Y-74858495D01*
X80438495Y-74691401D01*
X80574035Y-74497830D01*
X80673903Y-74283663D01*
X80735063Y-74055408D01*
X80739911Y-73999996D01*
X85994435Y-73999996D01*
X85994435Y-74000003D01*
X86014630Y-74179249D01*
X86014631Y-74179254D01*
X86074211Y-74349523D01*
X86167399Y-74497830D01*
X86170184Y-74502262D01*
X86297738Y-74629816D01*
X86450478Y-74725789D01*
X86620745Y-74785368D01*
X86620750Y-74785369D01*
X86799996Y-74805565D01*
X86800000Y-74805565D01*
X86800004Y-74805565D01*
X86979249Y-74785369D01*
X86979252Y-74785368D01*
X86979255Y-74785368D01*
X87149522Y-74725789D01*
X87302262Y-74629816D01*
X87429816Y-74502262D01*
X87525789Y-74349522D01*
X87585368Y-74179255D01*
X87586182Y-74172025D01*
X87613245Y-74107611D01*
X87621712Y-74098232D01*
X88133127Y-73586819D01*
X88194450Y-73553334D01*
X88220808Y-73550500D01*
X88535931Y-73550500D01*
X88879192Y-73550500D01*
X88946231Y-73570185D01*
X88966873Y-73586819D01*
X89378277Y-73998223D01*
X89411762Y-74059546D01*
X89413815Y-74072012D01*
X89414630Y-74079246D01*
X89414632Y-74079255D01*
X89474210Y-74249521D01*
X89495658Y-74283655D01*
X89570184Y-74402262D01*
X89697738Y-74529816D01*
X89719987Y-74543796D01*
X89810227Y-74600498D01*
X89850478Y-74625789D01*
X89861984Y-74629815D01*
X90020745Y-74685368D01*
X90020750Y-74685369D01*
X90199996Y-74705565D01*
X90200000Y-74705565D01*
X90200004Y-74705565D01*
X90379249Y-74685369D01*
X90379252Y-74685368D01*
X90379255Y-74685368D01*
X90549522Y-74625789D01*
X90702262Y-74529816D01*
X90829816Y-74402262D01*
X90925789Y-74249522D01*
X90985368Y-74079255D01*
X90987589Y-74059546D01*
X91005565Y-73900003D01*
X91005565Y-73899996D01*
X90985369Y-73720750D01*
X90985368Y-73720745D01*
X90925789Y-73550478D01*
X90829816Y-73397738D01*
X90702262Y-73270184D01*
X90613852Y-73214632D01*
X90549521Y-73174210D01*
X90379255Y-73114632D01*
X90379246Y-73114630D01*
X90372012Y-73113815D01*
X90339131Y-73099996D01*
X94494435Y-73099996D01*
X94494435Y-73100003D01*
X94514630Y-73279249D01*
X94514631Y-73279254D01*
X94574211Y-73449524D01*
X94630493Y-73539094D01*
X94649500Y-73605067D01*
X94649500Y-75194931D01*
X94630494Y-75260903D01*
X94574211Y-75350477D01*
X94574209Y-75350481D01*
X94514633Y-75520737D01*
X94514630Y-75520750D01*
X94494435Y-75699996D01*
X94494435Y-75700003D01*
X94514630Y-75879249D01*
X94514631Y-75879254D01*
X94574211Y-76049523D01*
X94612211Y-76109999D01*
X94670184Y-76202262D01*
X94797738Y-76329816D01*
X94950478Y-76425789D01*
X95120745Y-76485368D01*
X95120750Y-76485369D01*
X95299996Y-76505565D01*
X95300000Y-76505565D01*
X95300004Y-76505565D01*
X95479249Y-76485369D01*
X95479252Y-76485368D01*
X95479255Y-76485368D01*
X95649522Y-76425789D01*
X95802262Y-76329816D01*
X95929816Y-76202262D01*
X96025789Y-76049522D01*
X96085368Y-75879255D01*
X96085369Y-75879249D01*
X96105565Y-75700003D01*
X96105565Y-75699996D01*
X96085369Y-75520750D01*
X96085366Y-75520737D01*
X96025790Y-75350481D01*
X96025789Y-75350478D01*
X96004008Y-75315814D01*
X95969506Y-75260903D01*
X95950500Y-75194931D01*
X95950500Y-73605067D01*
X95969507Y-73539094D01*
X96025788Y-73449524D01*
X96043909Y-73397737D01*
X96085368Y-73279255D01*
X96085369Y-73279249D01*
X96105565Y-73100003D01*
X96105565Y-73099996D01*
X96085369Y-72920750D01*
X96085368Y-72920745D01*
X96025788Y-72750476D01*
X95929815Y-72597737D01*
X95802262Y-72470184D01*
X95649523Y-72374211D01*
X95479254Y-72314631D01*
X95479249Y-72314630D01*
X95300004Y-72294435D01*
X95299996Y-72294435D01*
X95120750Y-72314630D01*
X95120745Y-72314631D01*
X94950476Y-72374211D01*
X94797737Y-72470184D01*
X94670184Y-72597737D01*
X94574211Y-72750476D01*
X94514631Y-72920745D01*
X94514630Y-72920750D01*
X94494435Y-73099996D01*
X90339131Y-73099996D01*
X90307600Y-73086744D01*
X90298223Y-73078277D01*
X89614674Y-72394727D01*
X89614673Y-72394726D01*
X89583970Y-72374211D01*
X89508127Y-72323535D01*
X89495959Y-72318495D01*
X89389744Y-72274499D01*
X89389738Y-72274497D01*
X89350308Y-72266654D01*
X89288397Y-72234269D01*
X89253823Y-72173553D01*
X89250500Y-72145037D01*
X89250500Y-71830266D01*
X91523285Y-71830266D01*
X91682056Y-71885824D01*
X91849996Y-71904746D01*
X91850004Y-71904746D01*
X92017943Y-71885824D01*
X92176713Y-71830267D01*
X92176714Y-71830266D01*
X92673285Y-71830266D01*
X92832056Y-71885824D01*
X92999996Y-71904746D01*
X93000004Y-71904746D01*
X93167943Y-71885824D01*
X93326713Y-71830267D01*
X93326714Y-71830266D01*
X93000001Y-71503553D01*
X93000000Y-71503553D01*
X92673285Y-71830266D01*
X92176714Y-71830266D01*
X91850001Y-71503553D01*
X91850000Y-71503553D01*
X91523285Y-71830266D01*
X89250500Y-71830266D01*
X89250500Y-71149996D01*
X91095254Y-71149996D01*
X91095254Y-71150003D01*
X91114175Y-71317938D01*
X91114176Y-71317943D01*
X91169732Y-71476714D01*
X91496447Y-71150000D01*
X91476556Y-71130109D01*
X91750000Y-71130109D01*
X91750000Y-71169891D01*
X91765224Y-71206645D01*
X91793355Y-71234776D01*
X91830109Y-71250000D01*
X91869891Y-71250000D01*
X91906645Y-71234776D01*
X91934776Y-71206645D01*
X91950000Y-71169891D01*
X91950000Y-71130109D01*
X91934776Y-71093355D01*
X91906645Y-71065224D01*
X91869891Y-71050000D01*
X91830109Y-71050000D01*
X91793355Y-71065224D01*
X91765224Y-71093355D01*
X91750000Y-71130109D01*
X91476556Y-71130109D01*
X91169732Y-70823285D01*
X91114176Y-70982053D01*
X91114175Y-70982058D01*
X91095254Y-71149996D01*
X89250500Y-71149996D01*
X89250500Y-70575000D01*
X91628553Y-70575000D01*
X92425000Y-71371447D01*
X92666338Y-71130109D01*
X92900000Y-71130109D01*
X92900000Y-71169891D01*
X92915224Y-71206645D01*
X92943355Y-71234776D01*
X92980109Y-71250000D01*
X93019891Y-71250000D01*
X93056645Y-71234776D01*
X93084776Y-71206645D01*
X93100000Y-71169891D01*
X93100000Y-71149999D01*
X93353553Y-71149999D01*
X93353553Y-71150001D01*
X93680266Y-71476714D01*
X93680267Y-71476713D01*
X93735824Y-71317943D01*
X93754746Y-71150003D01*
X93754746Y-71149996D01*
X93735824Y-70982056D01*
X93680266Y-70823285D01*
X93353553Y-71149999D01*
X93100000Y-71149999D01*
X93100000Y-71130109D01*
X93084776Y-71093355D01*
X93056645Y-71065224D01*
X93019891Y-71050000D01*
X92980109Y-71050000D01*
X92943355Y-71065224D01*
X92915224Y-71093355D01*
X92900000Y-71130109D01*
X92666338Y-71130109D01*
X93086448Y-70709999D01*
X99819341Y-70709999D01*
X99819341Y-70710000D01*
X99839936Y-70945403D01*
X99839938Y-70945413D01*
X99901094Y-71173655D01*
X99901096Y-71173659D01*
X99901097Y-71173663D01*
X100000965Y-71387830D01*
X100000967Y-71387834D01*
X100063202Y-71476714D01*
X100136501Y-71581396D01*
X100136506Y-71581402D01*
X100258430Y-71703326D01*
X100291915Y-71764649D01*
X100286931Y-71834341D01*
X100245059Y-71890274D01*
X100214083Y-71907189D01*
X100082669Y-71956203D01*
X100082664Y-71956206D01*
X99967455Y-72042452D01*
X99967452Y-72042455D01*
X99881206Y-72157664D01*
X99881202Y-72157671D01*
X99830908Y-72292517D01*
X99827574Y-72323534D01*
X99824501Y-72352123D01*
X99824500Y-72352135D01*
X99824500Y-74147870D01*
X99824501Y-74147876D01*
X99830908Y-74207483D01*
X99881202Y-74342328D01*
X99881206Y-74342335D01*
X99967452Y-74457544D01*
X99967455Y-74457547D01*
X100082664Y-74543793D01*
X100082671Y-74543797D01*
X100217517Y-74594091D01*
X100217516Y-74594091D01*
X100224444Y-74594835D01*
X100277127Y-74600500D01*
X102072872Y-74600499D01*
X102132483Y-74594091D01*
X102267331Y-74543796D01*
X102382546Y-74457546D01*
X102468796Y-74342331D01*
X102519091Y-74207483D01*
X102525500Y-74147873D01*
X102525499Y-72352128D01*
X102519091Y-72292517D01*
X102502983Y-72249330D01*
X102468797Y-72157671D01*
X102468793Y-72157664D01*
X102382547Y-72042455D01*
X102382544Y-72042452D01*
X102267335Y-71956206D01*
X102267328Y-71956202D01*
X102135917Y-71907189D01*
X102079983Y-71865318D01*
X102055566Y-71799853D01*
X102070418Y-71731580D01*
X102091563Y-71703332D01*
X102213495Y-71581401D01*
X102349035Y-71387830D01*
X102448903Y-71173663D01*
X102510063Y-70945408D01*
X102530659Y-70710000D01*
X102510063Y-70474592D01*
X102448903Y-70246337D01*
X102349035Y-70032171D01*
X102340437Y-70019891D01*
X102213494Y-69838597D01*
X102046402Y-69671506D01*
X102046395Y-69671501D01*
X102016368Y-69650476D01*
X101941051Y-69597738D01*
X101852834Y-69535967D01*
X101852830Y-69535965D01*
X101770852Y-69497738D01*
X101638663Y-69436097D01*
X101638659Y-69436096D01*
X101638655Y-69436094D01*
X101410413Y-69374938D01*
X101410403Y-69374936D01*
X101175001Y-69354341D01*
X101174999Y-69354341D01*
X100939596Y-69374936D01*
X100939586Y-69374938D01*
X100711344Y-69436094D01*
X100711335Y-69436098D01*
X100497171Y-69535964D01*
X100497169Y-69535965D01*
X100303597Y-69671505D01*
X100136505Y-69838597D01*
X100000965Y-70032169D01*
X100000964Y-70032171D01*
X99901098Y-70246335D01*
X99901094Y-70246344D01*
X99839938Y-70474586D01*
X99839936Y-70474596D01*
X99819341Y-70709999D01*
X93086448Y-70709999D01*
X93221447Y-70575000D01*
X92626556Y-69980109D01*
X92900000Y-69980109D01*
X92900000Y-70019891D01*
X92915224Y-70056645D01*
X92943355Y-70084776D01*
X92980109Y-70100000D01*
X93019891Y-70100000D01*
X93056645Y-70084776D01*
X93084776Y-70056645D01*
X93100000Y-70019891D01*
X93100000Y-69999999D01*
X93353553Y-69999999D01*
X93353553Y-70000001D01*
X93680266Y-70326714D01*
X93680267Y-70326713D01*
X93735824Y-70167943D01*
X93754746Y-70000003D01*
X93754746Y-69999996D01*
X93735824Y-69832056D01*
X93680266Y-69673285D01*
X93353553Y-69999999D01*
X93100000Y-69999999D01*
X93100000Y-69980109D01*
X93084776Y-69943355D01*
X93056645Y-69915224D01*
X93019891Y-69900000D01*
X92980109Y-69900000D01*
X92943355Y-69915224D01*
X92915224Y-69943355D01*
X92900000Y-69980109D01*
X92626556Y-69980109D01*
X92425000Y-69778553D01*
X91628553Y-70575000D01*
X89250500Y-70575000D01*
X89250500Y-69999996D01*
X91095254Y-69999996D01*
X91095254Y-70000003D01*
X91114175Y-70167938D01*
X91114176Y-70167943D01*
X91169732Y-70326714D01*
X91496447Y-70000000D01*
X91476556Y-69980109D01*
X91750000Y-69980109D01*
X91750000Y-70019891D01*
X91765224Y-70056645D01*
X91793355Y-70084776D01*
X91830109Y-70100000D01*
X91869891Y-70100000D01*
X91906645Y-70084776D01*
X91934776Y-70056645D01*
X91950000Y-70019891D01*
X91950000Y-69980109D01*
X91934776Y-69943355D01*
X91906645Y-69915224D01*
X91869891Y-69900000D01*
X91830109Y-69900000D01*
X91793355Y-69915224D01*
X91765224Y-69943355D01*
X91750000Y-69980109D01*
X91476556Y-69980109D01*
X91169732Y-69673285D01*
X91114176Y-69832053D01*
X91114175Y-69832058D01*
X91095254Y-69999996D01*
X89250500Y-69999996D01*
X89250500Y-69319732D01*
X91523285Y-69319732D01*
X91850000Y-69646447D01*
X91850001Y-69646447D01*
X92176714Y-69319732D01*
X92673285Y-69319732D01*
X93000000Y-69646447D01*
X93000001Y-69646447D01*
X93326714Y-69319732D01*
X93167943Y-69264176D01*
X93167938Y-69264175D01*
X93000004Y-69245254D01*
X92999996Y-69245254D01*
X92832058Y-69264175D01*
X92832053Y-69264176D01*
X92673285Y-69319732D01*
X92176714Y-69319732D01*
X92017943Y-69264176D01*
X92017938Y-69264175D01*
X91850004Y-69245254D01*
X91849996Y-69245254D01*
X91682058Y-69264175D01*
X91682053Y-69264176D01*
X91523285Y-69319732D01*
X89250500Y-69319732D01*
X89250500Y-65905067D01*
X89269507Y-65839094D01*
X89325788Y-65749524D01*
X89330400Y-65736344D01*
X89385368Y-65579255D01*
X89405565Y-65400000D01*
X89397520Y-65328600D01*
X89385369Y-65220750D01*
X89385368Y-65220745D01*
X89325788Y-65050476D01*
X89265040Y-64953797D01*
X89229816Y-64897738D01*
X89102262Y-64770184D01*
X89073849Y-64752331D01*
X88949523Y-64674211D01*
X88779254Y-64614631D01*
X88779249Y-64614630D01*
X88600004Y-64594435D01*
X88599996Y-64594435D01*
X88420750Y-64614630D01*
X88420745Y-64614631D01*
X88250476Y-64674211D01*
X88097737Y-64770184D01*
X87970184Y-64897737D01*
X87874211Y-65050476D01*
X87814631Y-65220745D01*
X87814630Y-65220750D01*
X87794435Y-65399996D01*
X87794435Y-65400003D01*
X87814630Y-65579249D01*
X87814631Y-65579254D01*
X87874211Y-65749524D01*
X87930493Y-65839094D01*
X87949500Y-65905067D01*
X87949500Y-66134432D01*
X87929815Y-66201471D01*
X87877011Y-66247226D01*
X87807853Y-66257170D01*
X87784546Y-66251474D01*
X87679257Y-66214632D01*
X87679249Y-66214630D01*
X87500004Y-66194435D01*
X87499996Y-66194435D01*
X87320750Y-66214630D01*
X87320745Y-66214631D01*
X87150476Y-66274211D01*
X86997737Y-66370184D01*
X86870184Y-66497737D01*
X86774211Y-66650476D01*
X86714631Y-66820745D01*
X86714630Y-66820750D01*
X86694435Y-66999996D01*
X86694435Y-67000003D01*
X86714630Y-67179249D01*
X86714631Y-67179254D01*
X86774211Y-67349523D01*
X86834515Y-67445496D01*
X86849912Y-67470000D01*
X86870185Y-67502263D01*
X86872445Y-67505097D01*
X86873334Y-67507275D01*
X86873889Y-67508158D01*
X86873734Y-67508255D01*
X86898855Y-67569783D01*
X86899500Y-67582412D01*
X86899500Y-69417587D01*
X86879815Y-69484626D01*
X86872450Y-69494896D01*
X86870186Y-69497734D01*
X86774211Y-69650476D01*
X86714631Y-69820745D01*
X86714630Y-69820750D01*
X86694435Y-69999996D01*
X86694435Y-70000003D01*
X86714630Y-70179249D01*
X86714631Y-70179254D01*
X86774211Y-70349523D01*
X86837045Y-70449522D01*
X86870184Y-70502262D01*
X86997738Y-70629816D01*
X87150478Y-70725789D01*
X87215457Y-70748526D01*
X87320745Y-70785368D01*
X87320750Y-70785369D01*
X87499996Y-70805565D01*
X87500000Y-70805565D01*
X87500004Y-70805565D01*
X87679249Y-70785369D01*
X87679251Y-70785368D01*
X87679255Y-70785368D01*
X87679258Y-70785366D01*
X87679262Y-70785366D01*
X87784545Y-70748526D01*
X87854324Y-70744964D01*
X87914951Y-70779692D01*
X87947179Y-70841686D01*
X87949500Y-70865567D01*
X87949500Y-72125927D01*
X87929815Y-72192966D01*
X87877011Y-72238721D01*
X87841882Y-72248190D01*
X87841906Y-72248311D01*
X87840113Y-72248667D01*
X87837656Y-72249330D01*
X87835927Y-72249500D01*
X87710261Y-72274497D01*
X87710255Y-72274499D01*
X87591874Y-72323534D01*
X87485326Y-72394726D01*
X86701775Y-73178277D01*
X86640452Y-73211762D01*
X86627988Y-73213815D01*
X86620752Y-73214630D01*
X86620744Y-73214632D01*
X86450478Y-73274210D01*
X86297737Y-73370184D01*
X86170184Y-73497737D01*
X86074211Y-73650476D01*
X86014631Y-73820745D01*
X86014630Y-73820750D01*
X85994435Y-73999996D01*
X80739911Y-73999996D01*
X80755659Y-73820000D01*
X80735063Y-73584592D01*
X80673903Y-73356337D01*
X80574035Y-73142171D01*
X80550780Y-73108958D01*
X80438494Y-72948597D01*
X80271402Y-72781506D01*
X80271396Y-72781501D01*
X80085842Y-72651575D01*
X80042217Y-72596998D01*
X80035023Y-72527500D01*
X80066546Y-72465145D01*
X80085842Y-72448425D01*
X80108026Y-72432891D01*
X80271401Y-72318495D01*
X80438495Y-72151401D01*
X80574035Y-71957830D01*
X80673903Y-71743663D01*
X80735063Y-71515408D01*
X80755659Y-71280000D01*
X80735063Y-71044592D01*
X80673903Y-70816337D01*
X80574035Y-70602171D01*
X80504079Y-70502262D01*
X80438494Y-70408597D01*
X80271402Y-70241506D01*
X80271396Y-70241501D01*
X80085842Y-70111575D01*
X80042217Y-70056998D01*
X80035023Y-69987500D01*
X80066546Y-69925145D01*
X80085842Y-69908425D01*
X80108026Y-69892891D01*
X80271401Y-69778495D01*
X80438495Y-69611401D01*
X80574035Y-69417830D01*
X80673903Y-69203663D01*
X80735063Y-68975408D01*
X80755659Y-68740000D01*
X80735063Y-68504592D01*
X80673903Y-68276337D01*
X80574035Y-68062171D01*
X80438495Y-67868599D01*
X80438494Y-67868597D01*
X80271402Y-67701506D01*
X80271396Y-67701501D01*
X80085842Y-67571575D01*
X80042217Y-67516998D01*
X80035023Y-67447500D01*
X80066546Y-67385145D01*
X80085842Y-67368425D01*
X80112838Y-67349522D01*
X80271401Y-67238495D01*
X80438495Y-67071401D01*
X80574035Y-66877830D01*
X80673903Y-66663663D01*
X80724456Y-66474996D01*
X84669435Y-66474996D01*
X84669435Y-66475003D01*
X84689630Y-66654249D01*
X84689631Y-66654254D01*
X84749211Y-66824523D01*
X84845185Y-66977263D01*
X84847445Y-66980097D01*
X84848334Y-66982275D01*
X84848889Y-66983158D01*
X84848734Y-66983255D01*
X84873855Y-67044783D01*
X84874500Y-67057412D01*
X84874500Y-69555145D01*
X84855494Y-69621117D01*
X84774211Y-69750476D01*
X84714631Y-69920745D01*
X84714630Y-69920750D01*
X84694435Y-70099996D01*
X84694435Y-70100003D01*
X84714630Y-70279249D01*
X84714631Y-70279254D01*
X84774211Y-70449523D01*
X84853054Y-70575000D01*
X84870184Y-70602262D01*
X84997738Y-70729816D01*
X85150478Y-70825789D01*
X85264157Y-70865567D01*
X85320745Y-70885368D01*
X85320750Y-70885369D01*
X85499996Y-70905565D01*
X85500000Y-70905565D01*
X85500004Y-70905565D01*
X85679249Y-70885369D01*
X85679252Y-70885368D01*
X85679255Y-70885368D01*
X85849522Y-70825789D01*
X86002262Y-70729816D01*
X86129816Y-70602262D01*
X86225789Y-70449522D01*
X86285368Y-70279255D01*
X86289077Y-70246335D01*
X86305565Y-70100003D01*
X86305565Y-70099996D01*
X86285369Y-69920750D01*
X86285368Y-69920745D01*
X86235613Y-69778553D01*
X86225789Y-69750478D01*
X86129816Y-69597738D01*
X86111819Y-69579741D01*
X86078334Y-69518418D01*
X86075500Y-69492060D01*
X86075500Y-67057412D01*
X86095185Y-66990373D01*
X86102555Y-66980097D01*
X86104810Y-66977267D01*
X86104816Y-66977262D01*
X86200789Y-66824522D01*
X86260368Y-66654255D01*
X86278003Y-66497738D01*
X86280565Y-66475003D01*
X86280565Y-66474996D01*
X86260369Y-66295750D01*
X86260368Y-66295745D01*
X86231985Y-66214631D01*
X86200789Y-66125478D01*
X86104816Y-65972738D01*
X85977262Y-65845184D01*
X85967570Y-65839094D01*
X85824523Y-65749211D01*
X85654254Y-65689631D01*
X85654249Y-65689630D01*
X85475004Y-65669435D01*
X85474996Y-65669435D01*
X85295750Y-65689630D01*
X85295745Y-65689631D01*
X85125476Y-65749211D01*
X84972737Y-65845184D01*
X84845184Y-65972737D01*
X84749211Y-66125476D01*
X84689631Y-66295745D01*
X84689630Y-66295750D01*
X84669435Y-66474996D01*
X80724456Y-66474996D01*
X80735063Y-66435408D01*
X80755659Y-66200000D01*
X80735063Y-65964592D01*
X80673903Y-65736337D01*
X80574035Y-65522171D01*
X80488492Y-65400003D01*
X80438496Y-65328600D01*
X80438495Y-65328599D01*
X80316567Y-65206671D01*
X80283084Y-65145351D01*
X80288068Y-65075659D01*
X80329939Y-65019725D01*
X80360915Y-65002810D01*
X80492331Y-64953796D01*
X80607546Y-64867546D01*
X80693796Y-64752331D01*
X80744091Y-64617483D01*
X80750500Y-64557873D01*
X80750499Y-62762128D01*
X80744091Y-62702517D01*
X80693796Y-62567669D01*
X80693795Y-62567668D01*
X80693793Y-62567664D01*
X80607547Y-62452455D01*
X80607544Y-62452452D01*
X80492335Y-62366206D01*
X80492328Y-62366202D01*
X80357482Y-62315908D01*
X80357483Y-62315908D01*
X80297883Y-62309501D01*
X80297881Y-62309500D01*
X80297873Y-62309500D01*
X80297864Y-62309500D01*
X78502129Y-62309500D01*
X78502123Y-62309501D01*
X78442516Y-62315908D01*
X78307671Y-62366202D01*
X78307664Y-62366206D01*
X78192455Y-62452452D01*
X78192452Y-62452455D01*
X78106206Y-62567664D01*
X78106202Y-62567671D01*
X78055908Y-62702517D01*
X78049501Y-62762116D01*
X78049501Y-62762123D01*
X78049500Y-62762135D01*
X78049500Y-64557870D01*
X78049501Y-64557876D01*
X78055908Y-64617483D01*
X78106202Y-64752328D01*
X78106206Y-64752335D01*
X78192452Y-64867544D01*
X78192455Y-64867547D01*
X78307664Y-64953793D01*
X78307671Y-64953797D01*
X78439081Y-65002810D01*
X78495015Y-65044681D01*
X78519432Y-65110145D01*
X78504580Y-65178418D01*
X78483430Y-65206673D01*
X78361503Y-65328600D01*
X78225965Y-65522169D01*
X78225964Y-65522171D01*
X78126098Y-65736335D01*
X78126094Y-65736344D01*
X78064938Y-65964586D01*
X78064936Y-65964596D01*
X78044341Y-66199999D01*
X76503065Y-66199999D01*
X76500507Y-55833998D01*
X76501474Y-55818525D01*
X76542321Y-55493734D01*
X76544491Y-55481492D01*
X76620579Y-55149941D01*
X76623969Y-55137965D01*
X76732934Y-54815717D01*
X76737498Y-54804167D01*
X76878247Y-54494459D01*
X76883946Y-54483426D01*
X77055055Y-54189396D01*
X77061832Y-54178991D01*
X77261571Y-53903613D01*
X77269354Y-53893945D01*
X77495721Y-53639981D01*
X77504440Y-53631137D01*
X77755119Y-53401184D01*
X77764688Y-53393252D01*
X78037170Y-53189605D01*
X78047498Y-53182666D01*
X78339039Y-53007377D01*
X78350004Y-53001514D01*
X78657658Y-52856357D01*
X78669139Y-52851630D01*
X78989805Y-52738065D01*
X79001728Y-52734505D01*
X79332148Y-52653688D01*
X79344372Y-52651341D01*
X79684353Y-52603638D01*
X79690496Y-52602933D01*
X79710002Y-52601189D01*
X79714058Y-52600827D01*
X79724847Y-52600334D01*
X101429132Y-52556581D01*
X101456773Y-52559644D01*
G37*
%TD.AperFunction*%
%TD*%
M02*
