%TF.GenerationSoftware,KiCad,Pcbnew,8.0.5*%
%TF.CreationDate,2025-02-27T19:14:31+02:00*%
%TF.ProjectId,_autosave-QS390,5f617574-6f73-4617-9665-2d5153333930,rev?*%
%TF.SameCoordinates,Original*%
%TF.FileFunction,Legend,Top*%
%TF.FilePolarity,Positive*%
%FSLAX46Y46*%
G04 Gerber Fmt 4.6, Leading zero omitted, Abs format (unit mm)*
G04 Created by KiCad (PCBNEW 8.0.5) date 2025-02-27 19:14:31*
%MOMM*%
%LPD*%
G01*
G04 APERTURE LIST*
%ADD10C,0.100000*%
%ADD11C,0.250000*%
%ADD12C,0.120000*%
%ADD13C,0.000000*%
G04 APERTURE END LIST*
D10*
X87644360Y-55622419D02*
X87739598Y-55622419D01*
X87739598Y-55622419D02*
X87834836Y-55670038D01*
X87834836Y-55670038D02*
X87882455Y-55717657D01*
X87882455Y-55717657D02*
X87930074Y-55812895D01*
X87930074Y-55812895D02*
X87977693Y-56003371D01*
X87977693Y-56003371D02*
X87977693Y-56241466D01*
X87977693Y-56241466D02*
X87930074Y-56431942D01*
X87930074Y-56431942D02*
X87882455Y-56527180D01*
X87882455Y-56527180D02*
X87834836Y-56574800D01*
X87834836Y-56574800D02*
X87739598Y-56622419D01*
X87739598Y-56622419D02*
X87644360Y-56622419D01*
X87644360Y-56622419D02*
X87549122Y-56574800D01*
X87549122Y-56574800D02*
X87501503Y-56527180D01*
X87501503Y-56527180D02*
X87453884Y-56431942D01*
X87453884Y-56431942D02*
X87406265Y-56241466D01*
X87406265Y-56241466D02*
X87406265Y-56003371D01*
X87406265Y-56003371D02*
X87453884Y-55812895D01*
X87453884Y-55812895D02*
X87501503Y-55717657D01*
X87501503Y-55717657D02*
X87549122Y-55670038D01*
X87549122Y-55670038D02*
X87644360Y-55622419D01*
X88358646Y-55717657D02*
X88406265Y-55670038D01*
X88406265Y-55670038D02*
X88501503Y-55622419D01*
X88501503Y-55622419D02*
X88739598Y-55622419D01*
X88739598Y-55622419D02*
X88834836Y-55670038D01*
X88834836Y-55670038D02*
X88882455Y-55717657D01*
X88882455Y-55717657D02*
X88930074Y-55812895D01*
X88930074Y-55812895D02*
X88930074Y-55908133D01*
X88930074Y-55908133D02*
X88882455Y-56050990D01*
X88882455Y-56050990D02*
X88311027Y-56622419D01*
X88311027Y-56622419D02*
X88930074Y-56622419D01*
X90072931Y-55574800D02*
X89215789Y-56860514D01*
X90358646Y-55717657D02*
X90406265Y-55670038D01*
X90406265Y-55670038D02*
X90501503Y-55622419D01*
X90501503Y-55622419D02*
X90739598Y-55622419D01*
X90739598Y-55622419D02*
X90834836Y-55670038D01*
X90834836Y-55670038D02*
X90882455Y-55717657D01*
X90882455Y-55717657D02*
X90930074Y-55812895D01*
X90930074Y-55812895D02*
X90930074Y-55908133D01*
X90930074Y-55908133D02*
X90882455Y-56050990D01*
X90882455Y-56050990D02*
X90311027Y-56622419D01*
X90311027Y-56622419D02*
X90930074Y-56622419D01*
X91549122Y-55622419D02*
X91644360Y-55622419D01*
X91644360Y-55622419D02*
X91739598Y-55670038D01*
X91739598Y-55670038D02*
X91787217Y-55717657D01*
X91787217Y-55717657D02*
X91834836Y-55812895D01*
X91834836Y-55812895D02*
X91882455Y-56003371D01*
X91882455Y-56003371D02*
X91882455Y-56241466D01*
X91882455Y-56241466D02*
X91834836Y-56431942D01*
X91834836Y-56431942D02*
X91787217Y-56527180D01*
X91787217Y-56527180D02*
X91739598Y-56574800D01*
X91739598Y-56574800D02*
X91644360Y-56622419D01*
X91644360Y-56622419D02*
X91549122Y-56622419D01*
X91549122Y-56622419D02*
X91453884Y-56574800D01*
X91453884Y-56574800D02*
X91406265Y-56527180D01*
X91406265Y-56527180D02*
X91358646Y-56431942D01*
X91358646Y-56431942D02*
X91311027Y-56241466D01*
X91311027Y-56241466D02*
X91311027Y-56003371D01*
X91311027Y-56003371D02*
X91358646Y-55812895D01*
X91358646Y-55812895D02*
X91406265Y-55717657D01*
X91406265Y-55717657D02*
X91453884Y-55670038D01*
X91453884Y-55670038D02*
X91549122Y-55622419D01*
X92263408Y-55717657D02*
X92311027Y-55670038D01*
X92311027Y-55670038D02*
X92406265Y-55622419D01*
X92406265Y-55622419D02*
X92644360Y-55622419D01*
X92644360Y-55622419D02*
X92739598Y-55670038D01*
X92739598Y-55670038D02*
X92787217Y-55717657D01*
X92787217Y-55717657D02*
X92834836Y-55812895D01*
X92834836Y-55812895D02*
X92834836Y-55908133D01*
X92834836Y-55908133D02*
X92787217Y-56050990D01*
X92787217Y-56050990D02*
X92215789Y-56622419D01*
X92215789Y-56622419D02*
X92834836Y-56622419D01*
X93739598Y-55622419D02*
X93263408Y-55622419D01*
X93263408Y-55622419D02*
X93215789Y-56098609D01*
X93215789Y-56098609D02*
X93263408Y-56050990D01*
X93263408Y-56050990D02*
X93358646Y-56003371D01*
X93358646Y-56003371D02*
X93596741Y-56003371D01*
X93596741Y-56003371D02*
X93691979Y-56050990D01*
X93691979Y-56050990D02*
X93739598Y-56098609D01*
X93739598Y-56098609D02*
X93787217Y-56193847D01*
X93787217Y-56193847D02*
X93787217Y-56431942D01*
X93787217Y-56431942D02*
X93739598Y-56527180D01*
X93739598Y-56527180D02*
X93691979Y-56574800D01*
X93691979Y-56574800D02*
X93596741Y-56622419D01*
X93596741Y-56622419D02*
X93358646Y-56622419D01*
X93358646Y-56622419D02*
X93263408Y-56574800D01*
X93263408Y-56574800D02*
X93215789Y-56527180D01*
D11*
G36*
X88705904Y-53989970D02*
G01*
X88762315Y-54046381D01*
X88797805Y-54188341D01*
X88797805Y-54490896D01*
X88769368Y-54604642D01*
X88725480Y-54560754D01*
X88715891Y-54552884D01*
X88713730Y-54550393D01*
X88709972Y-54548027D01*
X88706538Y-54545209D01*
X88703488Y-54543945D01*
X88692992Y-54537338D01*
X88597755Y-54489720D01*
X88574869Y-54480962D01*
X88570387Y-54480643D01*
X88566239Y-54478925D01*
X88541853Y-54476523D01*
X88446615Y-54476523D01*
X88422229Y-54478925D01*
X88382282Y-54495470D01*
X88381139Y-54490896D01*
X88381139Y-54188341D01*
X88416629Y-54046381D01*
X88473039Y-53989970D01*
X88523743Y-53964619D01*
X88655202Y-53964619D01*
X88705904Y-53989970D01*
G37*
G36*
X91610665Y-53989969D02*
G01*
X91629597Y-54008902D01*
X91654948Y-54059603D01*
X91654948Y-54238681D01*
X91629597Y-54289382D01*
X91610665Y-54308315D01*
X91559964Y-54333666D01*
X91428505Y-54333666D01*
X91377803Y-54308315D01*
X91358870Y-54289383D01*
X91333520Y-54238682D01*
X91333520Y-54059603D01*
X91358870Y-54008901D01*
X91377803Y-53989969D01*
X91428505Y-53964619D01*
X91559964Y-53964619D01*
X91610665Y-53989969D01*
G37*
G36*
X92515427Y-53989969D02*
G01*
X92534359Y-54008902D01*
X92566769Y-54073723D01*
X92607329Y-54235960D01*
X92607329Y-54443277D01*
X92566769Y-54605513D01*
X92534358Y-54670336D01*
X92515427Y-54689268D01*
X92464726Y-54714619D01*
X92428505Y-54714619D01*
X92377803Y-54689268D01*
X92358871Y-54670336D01*
X92326460Y-54605515D01*
X92285901Y-54443277D01*
X92285901Y-54235960D01*
X92326460Y-54073722D01*
X92358870Y-54008901D01*
X92377803Y-53989969D01*
X92428505Y-53964619D01*
X92464726Y-53964619D01*
X92515427Y-53989969D01*
G37*
G36*
X92982329Y-55183875D02*
G01*
X87577568Y-55183875D01*
X87577568Y-53839619D01*
X87702568Y-53839619D01*
X87702568Y-54839619D01*
X87704970Y-54864005D01*
X87723634Y-54909065D01*
X87758122Y-54943553D01*
X87803182Y-54962217D01*
X87851954Y-54962217D01*
X87897014Y-54943553D01*
X87931502Y-54909065D01*
X87950166Y-54864005D01*
X87952568Y-54839619D01*
X87952568Y-54172952D01*
X88131139Y-54172952D01*
X88131139Y-54506285D01*
X88131558Y-54510539D01*
X88131287Y-54512361D01*
X88132636Y-54521489D01*
X88133541Y-54530671D01*
X88134245Y-54532372D01*
X88134871Y-54536602D01*
X88182490Y-54727078D01*
X88190735Y-54750153D01*
X88196267Y-54757619D01*
X88199824Y-54766207D01*
X88215369Y-54785149D01*
X88310607Y-54880388D01*
X88320195Y-54888257D01*
X88322357Y-54890749D01*
X88326114Y-54893114D01*
X88329549Y-54895933D01*
X88332599Y-54897196D01*
X88343094Y-54903803D01*
X88438332Y-54951422D01*
X88461218Y-54960180D01*
X88465698Y-54960498D01*
X88469848Y-54962217D01*
X88494234Y-54964619D01*
X88684710Y-54964619D01*
X88709096Y-54962217D01*
X88713244Y-54960498D01*
X88717726Y-54960180D01*
X88740612Y-54951422D01*
X88755266Y-54944094D01*
X88786798Y-54975626D01*
X88796383Y-54983492D01*
X88798547Y-54985987D01*
X88802308Y-54988354D01*
X88805740Y-54991171D01*
X88808787Y-54992433D01*
X88819284Y-54999041D01*
X88914522Y-55046660D01*
X88937408Y-55055418D01*
X88986057Y-55058875D01*
X89032328Y-55043452D01*
X89069173Y-55011496D01*
X89090984Y-54967873D01*
X89094442Y-54919223D01*
X89079019Y-54872953D01*
X89047063Y-54836108D01*
X89026325Y-54823053D01*
X88959222Y-54789501D01*
X88963575Y-54785149D01*
X88979120Y-54766207D01*
X88982677Y-54757618D01*
X88988209Y-54750153D01*
X88996454Y-54727078D01*
X89044073Y-54536602D01*
X89044698Y-54532372D01*
X89045403Y-54530671D01*
X89046307Y-54521491D01*
X89047657Y-54512362D01*
X89047385Y-54510539D01*
X89047805Y-54506285D01*
X89047805Y-54172952D01*
X89047385Y-54168697D01*
X89047657Y-54166875D01*
X89046307Y-54157745D01*
X89045403Y-54148566D01*
X89044698Y-54146864D01*
X89044073Y-54142635D01*
X89015938Y-54030095D01*
X89178758Y-54030095D01*
X89178758Y-54125333D01*
X89181160Y-54149719D01*
X89182878Y-54153867D01*
X89183197Y-54158349D01*
X89191955Y-54181235D01*
X89239573Y-54276472D01*
X89246182Y-54286970D01*
X89247444Y-54290017D01*
X89250259Y-54293448D01*
X89252628Y-54297210D01*
X89255122Y-54299373D01*
X89262989Y-54308959D01*
X89310607Y-54356578D01*
X89320195Y-54364447D01*
X89322357Y-54366939D01*
X89326114Y-54369304D01*
X89329549Y-54372123D01*
X89332599Y-54373386D01*
X89343094Y-54379993D01*
X89438332Y-54427612D01*
X89440117Y-54428295D01*
X89440842Y-54428832D01*
X89451071Y-54432487D01*
X89461218Y-54436370D01*
X89462117Y-54436433D01*
X89463917Y-54437077D01*
X89641083Y-54481368D01*
X89705903Y-54513778D01*
X89724835Y-54532711D01*
X89750186Y-54583412D01*
X89750186Y-54619633D01*
X89724834Y-54670336D01*
X89705903Y-54689268D01*
X89655202Y-54714619D01*
X89466901Y-54714619D01*
X89343286Y-54673415D01*
X89319392Y-54667982D01*
X89270743Y-54671439D01*
X89227118Y-54693251D01*
X89195163Y-54730097D01*
X89179740Y-54776366D01*
X89183197Y-54825015D01*
X89205009Y-54868640D01*
X89241855Y-54900595D01*
X89264230Y-54910585D01*
X89407086Y-54958204D01*
X89419179Y-54960953D01*
X89422229Y-54962217D01*
X89426650Y-54962652D01*
X89430980Y-54963637D01*
X89434271Y-54963403D01*
X89446615Y-54964619D01*
X89684710Y-54964619D01*
X89709096Y-54962217D01*
X89713244Y-54960498D01*
X89717726Y-54960180D01*
X89740612Y-54951422D01*
X89835849Y-54903804D01*
X89846345Y-54897196D01*
X89849395Y-54895933D01*
X89852828Y-54893114D01*
X89856587Y-54890749D01*
X89858749Y-54888255D01*
X89868337Y-54880387D01*
X89915956Y-54832768D01*
X89923823Y-54823180D01*
X89926316Y-54821019D01*
X89928682Y-54817259D01*
X89931501Y-54813825D01*
X89932763Y-54810776D01*
X89939370Y-54800282D01*
X89986989Y-54705044D01*
X89995747Y-54682158D01*
X89996065Y-54677677D01*
X89997784Y-54673528D01*
X90000186Y-54649142D01*
X90000186Y-54553904D01*
X89997784Y-54529518D01*
X89996065Y-54525368D01*
X89995747Y-54520888D01*
X89986989Y-54498002D01*
X89939370Y-54402764D01*
X89932763Y-54392269D01*
X89931500Y-54389219D01*
X89928681Y-54385784D01*
X89926316Y-54382027D01*
X89923824Y-54379865D01*
X89915955Y-54370277D01*
X89868336Y-54322659D01*
X89858750Y-54314792D01*
X89856587Y-54312298D01*
X89852825Y-54309929D01*
X89849394Y-54307114D01*
X89846347Y-54305852D01*
X89835849Y-54299243D01*
X89740612Y-54251625D01*
X89738826Y-54250941D01*
X89738102Y-54250405D01*
X89727872Y-54246749D01*
X89717726Y-54242867D01*
X89716826Y-54242803D01*
X89715027Y-54242160D01*
X89537862Y-54197868D01*
X89473041Y-54165458D01*
X89454108Y-54146526D01*
X89428758Y-54095825D01*
X89428758Y-54059603D01*
X89454108Y-54008901D01*
X89473041Y-53989969D01*
X89523743Y-53964619D01*
X89712046Y-53964619D01*
X89835657Y-54005823D01*
X89859551Y-54011256D01*
X89908201Y-54007799D01*
X89951825Y-53985987D01*
X89983781Y-53949141D01*
X89999204Y-53902872D01*
X89995747Y-53854222D01*
X89976252Y-53815233D01*
X90085922Y-53815233D01*
X90085922Y-53864005D01*
X90104586Y-53909065D01*
X90139074Y-53943553D01*
X90184134Y-53962217D01*
X90208520Y-53964619D01*
X90552096Y-53964619D01*
X90400162Y-54138258D01*
X90392626Y-54148798D01*
X90390300Y-54151125D01*
X90389386Y-54153330D01*
X90385911Y-54158192D01*
X90379404Y-54177430D01*
X90371636Y-54196185D01*
X90371636Y-54200398D01*
X90370285Y-54204393D01*
X90371636Y-54224654D01*
X90371636Y-54244957D01*
X90373249Y-54248852D01*
X90373530Y-54253059D01*
X90382529Y-54271257D01*
X90390300Y-54290017D01*
X90393281Y-54292998D01*
X90395150Y-54296777D01*
X90410430Y-54310147D01*
X90424788Y-54324505D01*
X90428682Y-54326118D01*
X90431855Y-54328894D01*
X90451093Y-54335400D01*
X90469848Y-54343169D01*
X90475792Y-54343754D01*
X90478056Y-54344520D01*
X90481340Y-54344300D01*
X90494234Y-54345571D01*
X90607583Y-54345571D01*
X90658284Y-54370921D01*
X90677216Y-54389854D01*
X90702567Y-54440555D01*
X90702567Y-54619633D01*
X90677215Y-54670336D01*
X90658284Y-54689268D01*
X90607583Y-54714619D01*
X90380886Y-54714619D01*
X90330184Y-54689268D01*
X90296909Y-54655993D01*
X90277967Y-54640447D01*
X90232908Y-54621782D01*
X90184135Y-54621782D01*
X90139075Y-54640446D01*
X90104587Y-54674933D01*
X90085922Y-54719992D01*
X90085922Y-54768765D01*
X90104586Y-54813825D01*
X90120131Y-54832767D01*
X90167750Y-54880387D01*
X90177338Y-54888256D01*
X90179500Y-54890749D01*
X90183254Y-54893112D01*
X90186691Y-54895933D01*
X90189744Y-54897197D01*
X90200237Y-54903803D01*
X90295475Y-54951422D01*
X90318361Y-54960180D01*
X90322841Y-54960498D01*
X90326991Y-54962217D01*
X90351377Y-54964619D01*
X90637091Y-54964619D01*
X90661477Y-54962217D01*
X90665625Y-54960498D01*
X90670107Y-54960180D01*
X90692993Y-54951422D01*
X90788230Y-54903804D01*
X90798726Y-54897196D01*
X90801776Y-54895933D01*
X90805209Y-54893114D01*
X90808968Y-54890749D01*
X90811130Y-54888255D01*
X90820718Y-54880387D01*
X90868337Y-54832768D01*
X90876204Y-54823180D01*
X90878697Y-54821019D01*
X90881063Y-54817259D01*
X90883882Y-54813825D01*
X90885144Y-54810776D01*
X90891751Y-54800282D01*
X90939370Y-54705044D01*
X90948128Y-54682158D01*
X90948446Y-54677677D01*
X90950165Y-54673528D01*
X90952567Y-54649142D01*
X90952567Y-54411047D01*
X90950165Y-54386661D01*
X90948446Y-54382511D01*
X90948128Y-54378031D01*
X90939370Y-54355145D01*
X90891751Y-54259907D01*
X90885144Y-54249412D01*
X90883881Y-54246362D01*
X90881062Y-54242927D01*
X90878697Y-54239170D01*
X90876205Y-54237008D01*
X90868336Y-54227420D01*
X90820717Y-54179802D01*
X90811131Y-54171935D01*
X90808968Y-54169441D01*
X90805206Y-54167072D01*
X90801775Y-54164257D01*
X90798728Y-54162995D01*
X90788230Y-54156386D01*
X90738324Y-54131433D01*
X90826996Y-54030095D01*
X91083520Y-54030095D01*
X91083520Y-54268190D01*
X91085922Y-54292576D01*
X91087640Y-54296724D01*
X91087959Y-54301206D01*
X91096717Y-54324092D01*
X91144335Y-54419329D01*
X91150944Y-54429827D01*
X91152206Y-54432874D01*
X91155021Y-54436305D01*
X91157390Y-54440067D01*
X91159884Y-54442230D01*
X91167751Y-54451816D01*
X91215369Y-54499435D01*
X91224957Y-54507304D01*
X91227119Y-54509796D01*
X91230876Y-54512161D01*
X91234311Y-54514980D01*
X91237361Y-54516243D01*
X91247856Y-54522850D01*
X91343094Y-54570469D01*
X91365980Y-54579227D01*
X91370460Y-54579545D01*
X91374610Y-54581264D01*
X91398996Y-54583666D01*
X91589472Y-54583666D01*
X91594320Y-54583188D01*
X91539948Y-54664746D01*
X91515427Y-54689268D01*
X91464726Y-54714619D01*
X91303758Y-54714619D01*
X91279372Y-54717021D01*
X91234312Y-54735685D01*
X91199824Y-54770173D01*
X91181160Y-54815233D01*
X91181160Y-54864005D01*
X91199824Y-54909065D01*
X91234312Y-54943553D01*
X91279372Y-54962217D01*
X91303758Y-54964619D01*
X91494234Y-54964619D01*
X91518620Y-54962217D01*
X91522768Y-54960498D01*
X91527250Y-54960180D01*
X91550136Y-54951422D01*
X91645373Y-54903804D01*
X91655869Y-54897196D01*
X91658919Y-54895933D01*
X91662352Y-54893114D01*
X91666111Y-54890749D01*
X91668273Y-54888255D01*
X91677861Y-54880387D01*
X91725480Y-54832768D01*
X91725535Y-54832700D01*
X91725572Y-54832676D01*
X91733501Y-54822992D01*
X91741025Y-54813825D01*
X91741040Y-54813786D01*
X91741097Y-54813718D01*
X91836335Y-54670860D01*
X91843514Y-54657394D01*
X91845352Y-54654915D01*
X91846398Y-54651987D01*
X91847864Y-54649238D01*
X91848463Y-54646206D01*
X91853597Y-54631840D01*
X91901216Y-54441364D01*
X91901841Y-54437134D01*
X91902546Y-54435433D01*
X91903450Y-54426253D01*
X91904800Y-54417124D01*
X91904528Y-54415301D01*
X91904948Y-54411047D01*
X91904948Y-54220571D01*
X92035901Y-54220571D01*
X92035901Y-54458666D01*
X92036320Y-54462920D01*
X92036049Y-54464742D01*
X92037398Y-54473870D01*
X92038303Y-54483052D01*
X92039007Y-54484753D01*
X92039633Y-54488983D01*
X92087252Y-54679459D01*
X92087895Y-54681258D01*
X92087959Y-54682158D01*
X92091841Y-54692304D01*
X92095497Y-54702534D01*
X92096033Y-54703258D01*
X92096717Y-54705044D01*
X92144335Y-54800281D01*
X92150942Y-54810777D01*
X92152205Y-54813825D01*
X92155022Y-54817258D01*
X92157390Y-54821019D01*
X92159884Y-54823182D01*
X92167750Y-54832767D01*
X92215369Y-54880387D01*
X92224957Y-54888256D01*
X92227119Y-54890749D01*
X92230873Y-54893112D01*
X92234310Y-54895933D01*
X92237363Y-54897197D01*
X92247856Y-54903803D01*
X92343094Y-54951422D01*
X92365980Y-54960180D01*
X92370460Y-54960498D01*
X92374610Y-54962217D01*
X92398996Y-54964619D01*
X92494234Y-54964619D01*
X92518620Y-54962217D01*
X92522768Y-54960498D01*
X92527250Y-54960180D01*
X92550136Y-54951422D01*
X92645373Y-54903804D01*
X92655869Y-54897196D01*
X92658919Y-54895933D01*
X92662352Y-54893114D01*
X92666111Y-54890749D01*
X92668273Y-54888255D01*
X92677861Y-54880387D01*
X92725480Y-54832768D01*
X92733347Y-54823180D01*
X92735840Y-54821019D01*
X92738206Y-54817259D01*
X92741025Y-54813825D01*
X92742287Y-54810776D01*
X92748894Y-54800282D01*
X92796513Y-54705044D01*
X92797196Y-54703258D01*
X92797733Y-54702534D01*
X92801388Y-54692304D01*
X92805271Y-54682158D01*
X92805334Y-54681258D01*
X92805978Y-54679459D01*
X92853597Y-54488983D01*
X92854222Y-54484753D01*
X92854927Y-54483052D01*
X92855831Y-54473872D01*
X92857181Y-54464743D01*
X92856909Y-54462920D01*
X92857329Y-54458666D01*
X92857329Y-54220571D01*
X92856909Y-54216316D01*
X92857181Y-54214494D01*
X92855831Y-54205364D01*
X92854927Y-54196185D01*
X92854222Y-54194483D01*
X92853597Y-54190254D01*
X92805978Y-53999778D01*
X92805334Y-53997978D01*
X92805271Y-53997079D01*
X92801388Y-53986932D01*
X92797733Y-53976703D01*
X92797196Y-53975978D01*
X92796513Y-53974193D01*
X92748894Y-53878955D01*
X92742287Y-53868460D01*
X92741024Y-53865410D01*
X92738205Y-53861975D01*
X92735840Y-53858218D01*
X92733348Y-53856056D01*
X92725479Y-53846468D01*
X92677860Y-53798850D01*
X92668274Y-53790983D01*
X92666111Y-53788489D01*
X92662349Y-53786120D01*
X92658918Y-53783305D01*
X92655871Y-53782043D01*
X92645373Y-53775434D01*
X92550136Y-53727816D01*
X92527250Y-53719058D01*
X92522768Y-53718739D01*
X92518620Y-53717021D01*
X92494234Y-53714619D01*
X92398996Y-53714619D01*
X92374610Y-53717021D01*
X92370460Y-53718739D01*
X92365980Y-53719058D01*
X92343094Y-53727816D01*
X92247856Y-53775435D01*
X92237361Y-53782041D01*
X92234311Y-53783305D01*
X92230876Y-53786123D01*
X92227119Y-53788489D01*
X92224957Y-53790980D01*
X92215369Y-53798850D01*
X92167751Y-53846469D01*
X92159884Y-53856054D01*
X92157390Y-53858218D01*
X92155021Y-53861979D01*
X92152206Y-53865411D01*
X92150944Y-53868457D01*
X92144335Y-53878956D01*
X92096717Y-53974193D01*
X92096033Y-53975978D01*
X92095497Y-53976703D01*
X92091841Y-53986932D01*
X92087959Y-53997079D01*
X92087895Y-53997978D01*
X92087252Y-53999778D01*
X92039633Y-54190254D01*
X92039007Y-54194483D01*
X92038303Y-54196185D01*
X92037398Y-54205366D01*
X92036049Y-54214495D01*
X92036320Y-54216316D01*
X92035901Y-54220571D01*
X91904948Y-54220571D01*
X91904948Y-54030095D01*
X91902546Y-54005709D01*
X91900827Y-54001559D01*
X91900509Y-53997079D01*
X91891751Y-53974193D01*
X91844132Y-53878955D01*
X91837525Y-53868460D01*
X91836262Y-53865410D01*
X91833443Y-53861975D01*
X91831078Y-53858218D01*
X91828586Y-53856056D01*
X91820717Y-53846468D01*
X91773098Y-53798850D01*
X91763512Y-53790983D01*
X91761349Y-53788489D01*
X91757587Y-53786120D01*
X91754156Y-53783305D01*
X91751109Y-53782043D01*
X91740611Y-53775434D01*
X91645374Y-53727816D01*
X91622488Y-53719058D01*
X91618006Y-53718739D01*
X91613858Y-53717021D01*
X91589472Y-53714619D01*
X91398996Y-53714619D01*
X91374610Y-53717021D01*
X91370460Y-53718739D01*
X91365980Y-53719058D01*
X91343094Y-53727816D01*
X91247856Y-53775435D01*
X91237361Y-53782041D01*
X91234311Y-53783305D01*
X91230876Y-53786123D01*
X91227119Y-53788489D01*
X91224957Y-53790980D01*
X91215369Y-53798850D01*
X91167751Y-53846469D01*
X91159884Y-53856054D01*
X91157390Y-53858218D01*
X91155021Y-53861979D01*
X91152206Y-53865411D01*
X91150944Y-53868457D01*
X91144335Y-53878956D01*
X91096717Y-53974193D01*
X91087959Y-53997079D01*
X91087640Y-54001560D01*
X91085922Y-54005709D01*
X91083520Y-54030095D01*
X90826996Y-54030095D01*
X90921639Y-53921932D01*
X90929174Y-53911391D01*
X90931501Y-53909065D01*
X90932414Y-53906859D01*
X90935890Y-53901998D01*
X90942396Y-53882759D01*
X90950165Y-53864005D01*
X90950165Y-53859791D01*
X90951516Y-53855797D01*
X90950165Y-53835529D01*
X90950165Y-53815233D01*
X90948552Y-53811340D01*
X90948272Y-53807131D01*
X90939268Y-53788925D01*
X90931501Y-53770173D01*
X90928519Y-53767191D01*
X90926651Y-53763413D01*
X90911370Y-53750042D01*
X90897013Y-53735685D01*
X90893118Y-53734071D01*
X90889946Y-53731296D01*
X90870707Y-53724789D01*
X90851953Y-53717021D01*
X90846008Y-53716435D01*
X90843745Y-53715670D01*
X90840460Y-53715888D01*
X90827567Y-53714619D01*
X90208520Y-53714619D01*
X90184134Y-53717021D01*
X90139074Y-53735685D01*
X90104586Y-53770173D01*
X90085922Y-53815233D01*
X89976252Y-53815233D01*
X89973935Y-53810598D01*
X89937089Y-53778643D01*
X89914714Y-53768652D01*
X89771857Y-53721034D01*
X89759766Y-53718284D01*
X89756715Y-53717021D01*
X89752292Y-53716585D01*
X89747963Y-53715601D01*
X89744672Y-53715834D01*
X89732329Y-53714619D01*
X89494234Y-53714619D01*
X89469848Y-53717021D01*
X89465698Y-53718739D01*
X89461218Y-53719058D01*
X89438332Y-53727816D01*
X89343094Y-53775435D01*
X89332599Y-53782041D01*
X89329549Y-53783305D01*
X89326114Y-53786123D01*
X89322357Y-53788489D01*
X89320195Y-53790980D01*
X89310607Y-53798850D01*
X89262989Y-53846469D01*
X89255122Y-53856054D01*
X89252628Y-53858218D01*
X89250259Y-53861979D01*
X89247444Y-53865411D01*
X89246182Y-53868457D01*
X89239573Y-53878956D01*
X89191955Y-53974193D01*
X89183197Y-53997079D01*
X89182878Y-54001560D01*
X89181160Y-54005709D01*
X89178758Y-54030095D01*
X89015938Y-54030095D01*
X88996454Y-53952159D01*
X88988209Y-53929084D01*
X88982675Y-53921615D01*
X88979119Y-53913030D01*
X88963574Y-53894088D01*
X88868336Y-53798850D01*
X88858750Y-53790983D01*
X88856587Y-53788489D01*
X88852825Y-53786120D01*
X88849394Y-53783305D01*
X88846347Y-53782043D01*
X88835849Y-53775434D01*
X88740612Y-53727816D01*
X88717726Y-53719058D01*
X88713244Y-53718739D01*
X88709096Y-53717021D01*
X88684710Y-53714619D01*
X88494234Y-53714619D01*
X88469848Y-53717021D01*
X88465698Y-53718739D01*
X88461218Y-53719058D01*
X88438332Y-53727816D01*
X88343094Y-53775435D01*
X88332597Y-53782042D01*
X88329550Y-53783305D01*
X88326118Y-53786121D01*
X88322357Y-53788489D01*
X88320193Y-53790983D01*
X88310608Y-53798850D01*
X88215370Y-53894088D01*
X88199825Y-53913030D01*
X88196268Y-53921615D01*
X88190735Y-53929084D01*
X88182490Y-53952159D01*
X88134871Y-54142635D01*
X88134245Y-54146864D01*
X88133541Y-54148566D01*
X88132636Y-54157747D01*
X88131287Y-54166876D01*
X88131558Y-54168697D01*
X88131139Y-54172952D01*
X87952568Y-54172952D01*
X87952568Y-53839619D01*
X87950166Y-53815233D01*
X87931502Y-53770173D01*
X87897014Y-53735685D01*
X87851954Y-53717021D01*
X87803182Y-53717021D01*
X87758122Y-53735685D01*
X87723634Y-53770173D01*
X87704970Y-53815233D01*
X87702568Y-53839619D01*
X87577568Y-53839619D01*
X87577568Y-53589619D01*
X92982329Y-53589619D01*
X92982329Y-55183875D01*
G37*
D10*
X79096741Y-78332419D02*
X79049122Y-78308609D01*
X79049122Y-78308609D02*
X78977693Y-78308609D01*
X78977693Y-78308609D02*
X78906265Y-78332419D01*
X78906265Y-78332419D02*
X78858646Y-78380038D01*
X78858646Y-78380038D02*
X78834836Y-78427657D01*
X78834836Y-78427657D02*
X78811027Y-78522895D01*
X78811027Y-78522895D02*
X78811027Y-78594323D01*
X78811027Y-78594323D02*
X78834836Y-78689561D01*
X78834836Y-78689561D02*
X78858646Y-78737180D01*
X78858646Y-78737180D02*
X78906265Y-78784800D01*
X78906265Y-78784800D02*
X78977693Y-78808609D01*
X78977693Y-78808609D02*
X79025312Y-78808609D01*
X79025312Y-78808609D02*
X79096741Y-78784800D01*
X79096741Y-78784800D02*
X79120550Y-78760990D01*
X79120550Y-78760990D02*
X79120550Y-78594323D01*
X79120550Y-78594323D02*
X79025312Y-78594323D01*
X79334836Y-78808609D02*
X79334836Y-78308609D01*
X79334836Y-78308609D02*
X79620550Y-78808609D01*
X79620550Y-78808609D02*
X79620550Y-78308609D01*
X79858646Y-78808609D02*
X79858646Y-78308609D01*
X79858646Y-78308609D02*
X79977694Y-78308609D01*
X79977694Y-78308609D02*
X80049122Y-78332419D01*
X80049122Y-78332419D02*
X80096741Y-78380038D01*
X80096741Y-78380038D02*
X80120551Y-78427657D01*
X80120551Y-78427657D02*
X80144360Y-78522895D01*
X80144360Y-78522895D02*
X80144360Y-78594323D01*
X80144360Y-78594323D02*
X80120551Y-78689561D01*
X80120551Y-78689561D02*
X80096741Y-78737180D01*
X80096741Y-78737180D02*
X80049122Y-78784800D01*
X80049122Y-78784800D02*
X79977694Y-78808609D01*
X79977694Y-78808609D02*
X79858646Y-78808609D01*
X81359836Y-74133609D02*
X81359836Y-73633609D01*
X81359836Y-73633609D02*
X81550312Y-73633609D01*
X81550312Y-73633609D02*
X81597931Y-73657419D01*
X81597931Y-73657419D02*
X81621741Y-73681228D01*
X81621741Y-73681228D02*
X81645550Y-73728847D01*
X81645550Y-73728847D02*
X81645550Y-73800276D01*
X81645550Y-73800276D02*
X81621741Y-73847895D01*
X81621741Y-73847895D02*
X81597931Y-73871704D01*
X81597931Y-73871704D02*
X81550312Y-73895514D01*
X81550312Y-73895514D02*
X81359836Y-73895514D01*
X81812217Y-73633609D02*
X81931265Y-74133609D01*
X81931265Y-74133609D02*
X82026503Y-73776466D01*
X82026503Y-73776466D02*
X82121741Y-74133609D01*
X82121741Y-74133609D02*
X82240789Y-73633609D01*
X82431265Y-74133609D02*
X82431265Y-73633609D01*
X82431265Y-73633609D02*
X82597932Y-73990752D01*
X82597932Y-73990752D02*
X82764598Y-73633609D01*
X82764598Y-73633609D02*
X82764598Y-74133609D01*
X81484836Y-71658609D02*
X81484836Y-71158609D01*
X81484836Y-71158609D02*
X81651503Y-71515752D01*
X81651503Y-71515752D02*
X81818169Y-71158609D01*
X81818169Y-71158609D02*
X81818169Y-71658609D01*
X82341979Y-71610990D02*
X82318170Y-71634800D01*
X82318170Y-71634800D02*
X82246741Y-71658609D01*
X82246741Y-71658609D02*
X82199122Y-71658609D01*
X82199122Y-71658609D02*
X82127694Y-71634800D01*
X82127694Y-71634800D02*
X82080075Y-71587180D01*
X82080075Y-71587180D02*
X82056265Y-71539561D01*
X82056265Y-71539561D02*
X82032456Y-71444323D01*
X82032456Y-71444323D02*
X82032456Y-71372895D01*
X82032456Y-71372895D02*
X82056265Y-71277657D01*
X82056265Y-71277657D02*
X82080075Y-71230038D01*
X82080075Y-71230038D02*
X82127694Y-71182419D01*
X82127694Y-71182419D02*
X82199122Y-71158609D01*
X82199122Y-71158609D02*
X82246741Y-71158609D01*
X82246741Y-71158609D02*
X82318170Y-71182419D01*
X82318170Y-71182419D02*
X82341979Y-71206228D01*
X82794360Y-71658609D02*
X82556265Y-71658609D01*
X82556265Y-71658609D02*
X82556265Y-71158609D01*
X83246741Y-71658609D02*
X83080075Y-71420514D01*
X82961027Y-71658609D02*
X82961027Y-71158609D01*
X82961027Y-71158609D02*
X83151503Y-71158609D01*
X83151503Y-71158609D02*
X83199122Y-71182419D01*
X83199122Y-71182419D02*
X83222932Y-71206228D01*
X83222932Y-71206228D02*
X83246741Y-71253847D01*
X83246741Y-71253847D02*
X83246741Y-71325276D01*
X83246741Y-71325276D02*
X83222932Y-71372895D01*
X83222932Y-71372895D02*
X83199122Y-71396704D01*
X83199122Y-71396704D02*
X83151503Y-71420514D01*
X83151503Y-71420514D02*
X82961027Y-71420514D01*
X81461027Y-68784800D02*
X81532455Y-68808609D01*
X81532455Y-68808609D02*
X81651503Y-68808609D01*
X81651503Y-68808609D02*
X81699122Y-68784800D01*
X81699122Y-68784800D02*
X81722931Y-68760990D01*
X81722931Y-68760990D02*
X81746741Y-68713371D01*
X81746741Y-68713371D02*
X81746741Y-68665752D01*
X81746741Y-68665752D02*
X81722931Y-68618133D01*
X81722931Y-68618133D02*
X81699122Y-68594323D01*
X81699122Y-68594323D02*
X81651503Y-68570514D01*
X81651503Y-68570514D02*
X81556265Y-68546704D01*
X81556265Y-68546704D02*
X81508646Y-68522895D01*
X81508646Y-68522895D02*
X81484836Y-68499085D01*
X81484836Y-68499085D02*
X81461027Y-68451466D01*
X81461027Y-68451466D02*
X81461027Y-68403847D01*
X81461027Y-68403847D02*
X81484836Y-68356228D01*
X81484836Y-68356228D02*
X81508646Y-68332419D01*
X81508646Y-68332419D02*
X81556265Y-68308609D01*
X81556265Y-68308609D02*
X81675312Y-68308609D01*
X81675312Y-68308609D02*
X81746741Y-68332419D01*
X82246740Y-68760990D02*
X82222931Y-68784800D01*
X82222931Y-68784800D02*
X82151502Y-68808609D01*
X82151502Y-68808609D02*
X82103883Y-68808609D01*
X82103883Y-68808609D02*
X82032455Y-68784800D01*
X82032455Y-68784800D02*
X81984836Y-68737180D01*
X81984836Y-68737180D02*
X81961026Y-68689561D01*
X81961026Y-68689561D02*
X81937217Y-68594323D01*
X81937217Y-68594323D02*
X81937217Y-68522895D01*
X81937217Y-68522895D02*
X81961026Y-68427657D01*
X81961026Y-68427657D02*
X81984836Y-68380038D01*
X81984836Y-68380038D02*
X82032455Y-68332419D01*
X82032455Y-68332419D02*
X82103883Y-68308609D01*
X82103883Y-68308609D02*
X82151502Y-68308609D01*
X82151502Y-68308609D02*
X82222931Y-68332419D01*
X82222931Y-68332419D02*
X82246740Y-68356228D01*
X82699121Y-68808609D02*
X82461026Y-68808609D01*
X82461026Y-68808609D02*
X82461026Y-68308609D01*
X81486027Y-66459800D02*
X81557455Y-66483609D01*
X81557455Y-66483609D02*
X81676503Y-66483609D01*
X81676503Y-66483609D02*
X81724122Y-66459800D01*
X81724122Y-66459800D02*
X81747931Y-66435990D01*
X81747931Y-66435990D02*
X81771741Y-66388371D01*
X81771741Y-66388371D02*
X81771741Y-66340752D01*
X81771741Y-66340752D02*
X81747931Y-66293133D01*
X81747931Y-66293133D02*
X81724122Y-66269323D01*
X81724122Y-66269323D02*
X81676503Y-66245514D01*
X81676503Y-66245514D02*
X81581265Y-66221704D01*
X81581265Y-66221704D02*
X81533646Y-66197895D01*
X81533646Y-66197895D02*
X81509836Y-66174085D01*
X81509836Y-66174085D02*
X81486027Y-66126466D01*
X81486027Y-66126466D02*
X81486027Y-66078847D01*
X81486027Y-66078847D02*
X81509836Y-66031228D01*
X81509836Y-66031228D02*
X81533646Y-66007419D01*
X81533646Y-66007419D02*
X81581265Y-65983609D01*
X81581265Y-65983609D02*
X81700312Y-65983609D01*
X81700312Y-65983609D02*
X81771741Y-66007419D01*
X81986026Y-66483609D02*
X81986026Y-65983609D01*
X81986026Y-65983609D02*
X82105074Y-65983609D01*
X82105074Y-65983609D02*
X82176502Y-66007419D01*
X82176502Y-66007419D02*
X82224121Y-66055038D01*
X82224121Y-66055038D02*
X82247931Y-66102657D01*
X82247931Y-66102657D02*
X82271740Y-66197895D01*
X82271740Y-66197895D02*
X82271740Y-66269323D01*
X82271740Y-66269323D02*
X82247931Y-66364561D01*
X82247931Y-66364561D02*
X82224121Y-66412180D01*
X82224121Y-66412180D02*
X82176502Y-66459800D01*
X82176502Y-66459800D02*
X82105074Y-66483609D01*
X82105074Y-66483609D02*
X81986026Y-66483609D01*
X82462217Y-66340752D02*
X82700312Y-66340752D01*
X82414598Y-66483609D02*
X82581264Y-65983609D01*
X82581264Y-65983609D02*
X82747931Y-66483609D01*
X81509836Y-63643133D02*
X81890789Y-63643133D01*
X81700312Y-63833609D02*
X81700312Y-63452657D01*
X82081265Y-63333609D02*
X82390789Y-63333609D01*
X82390789Y-63333609D02*
X82224122Y-63524085D01*
X82224122Y-63524085D02*
X82295551Y-63524085D01*
X82295551Y-63524085D02*
X82343170Y-63547895D01*
X82343170Y-63547895D02*
X82366979Y-63571704D01*
X82366979Y-63571704D02*
X82390789Y-63619323D01*
X82390789Y-63619323D02*
X82390789Y-63738371D01*
X82390789Y-63738371D02*
X82366979Y-63785990D01*
X82366979Y-63785990D02*
X82343170Y-63809800D01*
X82343170Y-63809800D02*
X82295551Y-63833609D01*
X82295551Y-63833609D02*
X82152694Y-63833609D01*
X82152694Y-63833609D02*
X82105075Y-63809800D01*
X82105075Y-63809800D02*
X82081265Y-63785990D01*
X82533646Y-63333609D02*
X82700312Y-63833609D01*
X82700312Y-63833609D02*
X82866979Y-63333609D01*
X82986026Y-63333609D02*
X83295550Y-63333609D01*
X83295550Y-63333609D02*
X83128883Y-63524085D01*
X83128883Y-63524085D02*
X83200312Y-63524085D01*
X83200312Y-63524085D02*
X83247931Y-63547895D01*
X83247931Y-63547895D02*
X83271740Y-63571704D01*
X83271740Y-63571704D02*
X83295550Y-63619323D01*
X83295550Y-63619323D02*
X83295550Y-63738371D01*
X83295550Y-63738371D02*
X83271740Y-63785990D01*
X83271740Y-63785990D02*
X83247931Y-63809800D01*
X83247931Y-63809800D02*
X83200312Y-63833609D01*
X83200312Y-63833609D02*
X83057455Y-63833609D01*
X83057455Y-63833609D02*
X83009836Y-63809800D01*
X83009836Y-63809800D02*
X82986026Y-63785990D01*
X84584836Y-85733609D02*
X84584836Y-85233609D01*
X84799122Y-85733609D02*
X84799122Y-85471704D01*
X84799122Y-85471704D02*
X84775312Y-85424085D01*
X84775312Y-85424085D02*
X84727693Y-85400276D01*
X84727693Y-85400276D02*
X84656265Y-85400276D01*
X84656265Y-85400276D02*
X84608646Y-85424085D01*
X84608646Y-85424085D02*
X84584836Y-85447895D01*
X84965789Y-85400276D02*
X85156265Y-85400276D01*
X85037217Y-85233609D02*
X85037217Y-85662180D01*
X85037217Y-85662180D02*
X85061027Y-85709800D01*
X85061027Y-85709800D02*
X85108646Y-85733609D01*
X85108646Y-85733609D02*
X85156265Y-85733609D01*
X85251503Y-85400276D02*
X85441979Y-85400276D01*
X85322931Y-85233609D02*
X85322931Y-85662180D01*
X85322931Y-85662180D02*
X85346741Y-85709800D01*
X85346741Y-85709800D02*
X85394360Y-85733609D01*
X85394360Y-85733609D02*
X85441979Y-85733609D01*
X85608645Y-85400276D02*
X85608645Y-85900276D01*
X85608645Y-85424085D02*
X85656264Y-85400276D01*
X85656264Y-85400276D02*
X85751502Y-85400276D01*
X85751502Y-85400276D02*
X85799121Y-85424085D01*
X85799121Y-85424085D02*
X85822931Y-85447895D01*
X85822931Y-85447895D02*
X85846740Y-85495514D01*
X85846740Y-85495514D02*
X85846740Y-85638371D01*
X85846740Y-85638371D02*
X85822931Y-85685990D01*
X85822931Y-85685990D02*
X85799121Y-85709800D01*
X85799121Y-85709800D02*
X85751502Y-85733609D01*
X85751502Y-85733609D02*
X85656264Y-85733609D01*
X85656264Y-85733609D02*
X85608645Y-85709800D01*
X86037217Y-85709800D02*
X86084836Y-85733609D01*
X86084836Y-85733609D02*
X86180074Y-85733609D01*
X86180074Y-85733609D02*
X86227693Y-85709800D01*
X86227693Y-85709800D02*
X86251502Y-85662180D01*
X86251502Y-85662180D02*
X86251502Y-85638371D01*
X86251502Y-85638371D02*
X86227693Y-85590752D01*
X86227693Y-85590752D02*
X86180074Y-85566942D01*
X86180074Y-85566942D02*
X86108645Y-85566942D01*
X86108645Y-85566942D02*
X86061026Y-85543133D01*
X86061026Y-85543133D02*
X86037217Y-85495514D01*
X86037217Y-85495514D02*
X86037217Y-85471704D01*
X86037217Y-85471704D02*
X86061026Y-85424085D01*
X86061026Y-85424085D02*
X86108645Y-85400276D01*
X86108645Y-85400276D02*
X86180074Y-85400276D01*
X86180074Y-85400276D02*
X86227693Y-85424085D01*
X86465788Y-85685990D02*
X86489598Y-85709800D01*
X86489598Y-85709800D02*
X86465788Y-85733609D01*
X86465788Y-85733609D02*
X86441979Y-85709800D01*
X86441979Y-85709800D02*
X86465788Y-85685990D01*
X86465788Y-85685990D02*
X86465788Y-85733609D01*
X86465788Y-85424085D02*
X86489598Y-85447895D01*
X86489598Y-85447895D02*
X86465788Y-85471704D01*
X86465788Y-85471704D02*
X86441979Y-85447895D01*
X86441979Y-85447895D02*
X86465788Y-85424085D01*
X86465788Y-85424085D02*
X86465788Y-85471704D01*
X87061026Y-85209800D02*
X86632455Y-85852657D01*
X87584836Y-85209800D02*
X87156265Y-85852657D01*
X87965789Y-85400276D02*
X87965789Y-85805038D01*
X87965789Y-85805038D02*
X87941979Y-85852657D01*
X87941979Y-85852657D02*
X87918170Y-85876466D01*
X87918170Y-85876466D02*
X87870551Y-85900276D01*
X87870551Y-85900276D02*
X87799122Y-85900276D01*
X87799122Y-85900276D02*
X87751503Y-85876466D01*
X87965789Y-85709800D02*
X87918170Y-85733609D01*
X87918170Y-85733609D02*
X87822932Y-85733609D01*
X87822932Y-85733609D02*
X87775313Y-85709800D01*
X87775313Y-85709800D02*
X87751503Y-85685990D01*
X87751503Y-85685990D02*
X87727694Y-85638371D01*
X87727694Y-85638371D02*
X87727694Y-85495514D01*
X87727694Y-85495514D02*
X87751503Y-85447895D01*
X87751503Y-85447895D02*
X87775313Y-85424085D01*
X87775313Y-85424085D02*
X87822932Y-85400276D01*
X87822932Y-85400276D02*
X87918170Y-85400276D01*
X87918170Y-85400276D02*
X87965789Y-85424085D01*
X88203884Y-85733609D02*
X88203884Y-85400276D01*
X88203884Y-85233609D02*
X88180075Y-85257419D01*
X88180075Y-85257419D02*
X88203884Y-85281228D01*
X88203884Y-85281228D02*
X88227694Y-85257419D01*
X88227694Y-85257419D02*
X88203884Y-85233609D01*
X88203884Y-85233609D02*
X88203884Y-85281228D01*
X88370551Y-85400276D02*
X88561027Y-85400276D01*
X88441979Y-85233609D02*
X88441979Y-85662180D01*
X88441979Y-85662180D02*
X88465789Y-85709800D01*
X88465789Y-85709800D02*
X88513408Y-85733609D01*
X88513408Y-85733609D02*
X88561027Y-85733609D01*
X88727693Y-85733609D02*
X88727693Y-85233609D01*
X88941979Y-85733609D02*
X88941979Y-85471704D01*
X88941979Y-85471704D02*
X88918169Y-85424085D01*
X88918169Y-85424085D02*
X88870550Y-85400276D01*
X88870550Y-85400276D02*
X88799122Y-85400276D01*
X88799122Y-85400276D02*
X88751503Y-85424085D01*
X88751503Y-85424085D02*
X88727693Y-85447895D01*
X89394360Y-85400276D02*
X89394360Y-85733609D01*
X89180074Y-85400276D02*
X89180074Y-85662180D01*
X89180074Y-85662180D02*
X89203884Y-85709800D01*
X89203884Y-85709800D02*
X89251503Y-85733609D01*
X89251503Y-85733609D02*
X89322931Y-85733609D01*
X89322931Y-85733609D02*
X89370550Y-85709800D01*
X89370550Y-85709800D02*
X89394360Y-85685990D01*
X89632455Y-85733609D02*
X89632455Y-85233609D01*
X89632455Y-85424085D02*
X89680074Y-85400276D01*
X89680074Y-85400276D02*
X89775312Y-85400276D01*
X89775312Y-85400276D02*
X89822931Y-85424085D01*
X89822931Y-85424085D02*
X89846741Y-85447895D01*
X89846741Y-85447895D02*
X89870550Y-85495514D01*
X89870550Y-85495514D02*
X89870550Y-85638371D01*
X89870550Y-85638371D02*
X89846741Y-85685990D01*
X89846741Y-85685990D02*
X89822931Y-85709800D01*
X89822931Y-85709800D02*
X89775312Y-85733609D01*
X89775312Y-85733609D02*
X89680074Y-85733609D01*
X89680074Y-85733609D02*
X89632455Y-85709800D01*
X90084836Y-85685990D02*
X90108646Y-85709800D01*
X90108646Y-85709800D02*
X90084836Y-85733609D01*
X90084836Y-85733609D02*
X90061027Y-85709800D01*
X90061027Y-85709800D02*
X90084836Y-85685990D01*
X90084836Y-85685990D02*
X90084836Y-85733609D01*
X90537217Y-85709800D02*
X90489598Y-85733609D01*
X90489598Y-85733609D02*
X90394360Y-85733609D01*
X90394360Y-85733609D02*
X90346741Y-85709800D01*
X90346741Y-85709800D02*
X90322931Y-85685990D01*
X90322931Y-85685990D02*
X90299122Y-85638371D01*
X90299122Y-85638371D02*
X90299122Y-85495514D01*
X90299122Y-85495514D02*
X90322931Y-85447895D01*
X90322931Y-85447895D02*
X90346741Y-85424085D01*
X90346741Y-85424085D02*
X90394360Y-85400276D01*
X90394360Y-85400276D02*
X90489598Y-85400276D01*
X90489598Y-85400276D02*
X90537217Y-85424085D01*
X90822931Y-85733609D02*
X90775312Y-85709800D01*
X90775312Y-85709800D02*
X90751502Y-85685990D01*
X90751502Y-85685990D02*
X90727693Y-85638371D01*
X90727693Y-85638371D02*
X90727693Y-85495514D01*
X90727693Y-85495514D02*
X90751502Y-85447895D01*
X90751502Y-85447895D02*
X90775312Y-85424085D01*
X90775312Y-85424085D02*
X90822931Y-85400276D01*
X90822931Y-85400276D02*
X90894359Y-85400276D01*
X90894359Y-85400276D02*
X90941978Y-85424085D01*
X90941978Y-85424085D02*
X90965788Y-85447895D01*
X90965788Y-85447895D02*
X90989597Y-85495514D01*
X90989597Y-85495514D02*
X90989597Y-85638371D01*
X90989597Y-85638371D02*
X90965788Y-85685990D01*
X90965788Y-85685990D02*
X90941978Y-85709800D01*
X90941978Y-85709800D02*
X90894359Y-85733609D01*
X90894359Y-85733609D02*
X90822931Y-85733609D01*
X91203883Y-85733609D02*
X91203883Y-85400276D01*
X91203883Y-85447895D02*
X91227693Y-85424085D01*
X91227693Y-85424085D02*
X91275312Y-85400276D01*
X91275312Y-85400276D02*
X91346740Y-85400276D01*
X91346740Y-85400276D02*
X91394359Y-85424085D01*
X91394359Y-85424085D02*
X91418169Y-85471704D01*
X91418169Y-85471704D02*
X91418169Y-85733609D01*
X91418169Y-85471704D02*
X91441978Y-85424085D01*
X91441978Y-85424085D02*
X91489597Y-85400276D01*
X91489597Y-85400276D02*
X91561026Y-85400276D01*
X91561026Y-85400276D02*
X91608645Y-85424085D01*
X91608645Y-85424085D02*
X91632455Y-85471704D01*
X91632455Y-85471704D02*
X91632455Y-85733609D01*
X92227693Y-85209800D02*
X91799122Y-85852657D01*
X92322932Y-85400276D02*
X92513408Y-85400276D01*
X92394360Y-85233609D02*
X92394360Y-85662180D01*
X92394360Y-85662180D02*
X92418170Y-85709800D01*
X92418170Y-85709800D02*
X92465789Y-85733609D01*
X92465789Y-85733609D02*
X92513408Y-85733609D01*
X92656265Y-85709800D02*
X92703884Y-85733609D01*
X92703884Y-85733609D02*
X92799122Y-85733609D01*
X92799122Y-85733609D02*
X92846741Y-85709800D01*
X92846741Y-85709800D02*
X92870550Y-85662180D01*
X92870550Y-85662180D02*
X92870550Y-85638371D01*
X92870550Y-85638371D02*
X92846741Y-85590752D01*
X92846741Y-85590752D02*
X92799122Y-85566942D01*
X92799122Y-85566942D02*
X92727693Y-85566942D01*
X92727693Y-85566942D02*
X92680074Y-85543133D01*
X92680074Y-85543133D02*
X92656265Y-85495514D01*
X92656265Y-85495514D02*
X92656265Y-85471704D01*
X92656265Y-85471704D02*
X92680074Y-85424085D01*
X92680074Y-85424085D02*
X92727693Y-85400276D01*
X92727693Y-85400276D02*
X92799122Y-85400276D01*
X92799122Y-85400276D02*
X92846741Y-85424085D01*
X93156265Y-85733609D02*
X93108646Y-85709800D01*
X93108646Y-85709800D02*
X93084836Y-85685990D01*
X93084836Y-85685990D02*
X93061027Y-85638371D01*
X93061027Y-85638371D02*
X93061027Y-85495514D01*
X93061027Y-85495514D02*
X93084836Y-85447895D01*
X93084836Y-85447895D02*
X93108646Y-85424085D01*
X93108646Y-85424085D02*
X93156265Y-85400276D01*
X93156265Y-85400276D02*
X93227693Y-85400276D01*
X93227693Y-85400276D02*
X93275312Y-85424085D01*
X93275312Y-85424085D02*
X93299122Y-85447895D01*
X93299122Y-85447895D02*
X93322931Y-85495514D01*
X93322931Y-85495514D02*
X93322931Y-85638371D01*
X93322931Y-85638371D02*
X93299122Y-85685990D01*
X93299122Y-85685990D02*
X93275312Y-85709800D01*
X93275312Y-85709800D02*
X93227693Y-85733609D01*
X93227693Y-85733609D02*
X93156265Y-85733609D01*
X93537217Y-85733609D02*
X93537217Y-85233609D01*
X93584836Y-85543133D02*
X93727693Y-85733609D01*
X93727693Y-85400276D02*
X93537217Y-85590752D01*
X94013408Y-85733609D02*
X93965789Y-85709800D01*
X93965789Y-85709800D02*
X93941979Y-85685990D01*
X93941979Y-85685990D02*
X93918170Y-85638371D01*
X93918170Y-85638371D02*
X93918170Y-85495514D01*
X93918170Y-85495514D02*
X93941979Y-85447895D01*
X93941979Y-85447895D02*
X93965789Y-85424085D01*
X93965789Y-85424085D02*
X94013408Y-85400276D01*
X94013408Y-85400276D02*
X94084836Y-85400276D01*
X94084836Y-85400276D02*
X94132455Y-85424085D01*
X94132455Y-85424085D02*
X94156265Y-85447895D01*
X94156265Y-85447895D02*
X94180074Y-85495514D01*
X94180074Y-85495514D02*
X94180074Y-85638371D01*
X94180074Y-85638371D02*
X94156265Y-85685990D01*
X94156265Y-85685990D02*
X94132455Y-85709800D01*
X94132455Y-85709800D02*
X94084836Y-85733609D01*
X94084836Y-85733609D02*
X94013408Y-85733609D01*
X94394360Y-85733609D02*
X94394360Y-85400276D01*
X94394360Y-85447895D02*
X94418170Y-85424085D01*
X94418170Y-85424085D02*
X94465789Y-85400276D01*
X94465789Y-85400276D02*
X94537217Y-85400276D01*
X94537217Y-85400276D02*
X94584836Y-85424085D01*
X94584836Y-85424085D02*
X94608646Y-85471704D01*
X94608646Y-85471704D02*
X94608646Y-85733609D01*
X94608646Y-85471704D02*
X94632455Y-85424085D01*
X94632455Y-85424085D02*
X94680074Y-85400276D01*
X94680074Y-85400276D02*
X94751503Y-85400276D01*
X94751503Y-85400276D02*
X94799122Y-85424085D01*
X94799122Y-85424085D02*
X94822932Y-85471704D01*
X94822932Y-85471704D02*
X94822932Y-85733609D01*
X95275313Y-85733609D02*
X95275313Y-85471704D01*
X95275313Y-85471704D02*
X95251503Y-85424085D01*
X95251503Y-85424085D02*
X95203884Y-85400276D01*
X95203884Y-85400276D02*
X95108646Y-85400276D01*
X95108646Y-85400276D02*
X95061027Y-85424085D01*
X95275313Y-85709800D02*
X95227694Y-85733609D01*
X95227694Y-85733609D02*
X95108646Y-85733609D01*
X95108646Y-85733609D02*
X95061027Y-85709800D01*
X95061027Y-85709800D02*
X95037218Y-85662180D01*
X95037218Y-85662180D02*
X95037218Y-85614561D01*
X95037218Y-85614561D02*
X95061027Y-85566942D01*
X95061027Y-85566942D02*
X95108646Y-85543133D01*
X95108646Y-85543133D02*
X95227694Y-85543133D01*
X95227694Y-85543133D02*
X95275313Y-85519323D01*
X95584837Y-85733609D02*
X95537218Y-85709800D01*
X95537218Y-85709800D02*
X95513408Y-85662180D01*
X95513408Y-85662180D02*
X95513408Y-85233609D01*
X95989599Y-85400276D02*
X95989599Y-85733609D01*
X95775313Y-85400276D02*
X95775313Y-85662180D01*
X95775313Y-85662180D02*
X95799123Y-85709800D01*
X95799123Y-85709800D02*
X95846742Y-85733609D01*
X95846742Y-85733609D02*
X95918170Y-85733609D01*
X95918170Y-85733609D02*
X95965789Y-85709800D01*
X95965789Y-85709800D02*
X95989599Y-85685990D01*
X96203885Y-85709800D02*
X96251504Y-85733609D01*
X96251504Y-85733609D02*
X96346742Y-85733609D01*
X96346742Y-85733609D02*
X96394361Y-85709800D01*
X96394361Y-85709800D02*
X96418170Y-85662180D01*
X96418170Y-85662180D02*
X96418170Y-85638371D01*
X96418170Y-85638371D02*
X96394361Y-85590752D01*
X96394361Y-85590752D02*
X96346742Y-85566942D01*
X96346742Y-85566942D02*
X96275313Y-85566942D01*
X96275313Y-85566942D02*
X96227694Y-85543133D01*
X96227694Y-85543133D02*
X96203885Y-85495514D01*
X96203885Y-85495514D02*
X96203885Y-85471704D01*
X96203885Y-85471704D02*
X96227694Y-85424085D01*
X96227694Y-85424085D02*
X96275313Y-85400276D01*
X96275313Y-85400276D02*
X96346742Y-85400276D01*
X96346742Y-85400276D02*
X96394361Y-85424085D01*
X96632456Y-85733609D02*
X96632456Y-85400276D01*
X96632456Y-85233609D02*
X96608647Y-85257419D01*
X96608647Y-85257419D02*
X96632456Y-85281228D01*
X96632456Y-85281228D02*
X96656266Y-85257419D01*
X96656266Y-85257419D02*
X96632456Y-85233609D01*
X96632456Y-85233609D02*
X96632456Y-85281228D01*
X98384836Y-74033609D02*
X98384836Y-73533609D01*
X98384836Y-73533609D02*
X98551503Y-73890752D01*
X98551503Y-73890752D02*
X98718169Y-73533609D01*
X98718169Y-73533609D02*
X98718169Y-74033609D01*
X98956265Y-73843133D02*
X99337218Y-73843133D01*
X99146741Y-74033609D02*
X99146741Y-73652657D01*
X98284836Y-70233609D02*
X98284836Y-69733609D01*
X98284836Y-69733609D02*
X98451503Y-70090752D01*
X98451503Y-70090752D02*
X98618169Y-69733609D01*
X98618169Y-69733609D02*
X98618169Y-70233609D01*
X98856265Y-70043133D02*
X99237218Y-70043133D01*
X100522931Y-68533609D02*
X100284836Y-68533609D01*
X100284836Y-68533609D02*
X100284836Y-68033609D01*
X100975312Y-68533609D02*
X100808646Y-68295514D01*
X100689598Y-68533609D02*
X100689598Y-68033609D01*
X100689598Y-68033609D02*
X100880074Y-68033609D01*
X100880074Y-68033609D02*
X100927693Y-68057419D01*
X100927693Y-68057419D02*
X100951503Y-68081228D01*
X100951503Y-68081228D02*
X100975312Y-68128847D01*
X100975312Y-68128847D02*
X100975312Y-68200276D01*
X100975312Y-68200276D02*
X100951503Y-68247895D01*
X100951503Y-68247895D02*
X100927693Y-68271704D01*
X100927693Y-68271704D02*
X100880074Y-68295514D01*
X100880074Y-68295514D02*
X100689598Y-68295514D01*
X101165789Y-68390752D02*
X101403884Y-68390752D01*
X101118170Y-68533609D02*
X101284836Y-68033609D01*
X101284836Y-68033609D02*
X101451503Y-68533609D01*
X94769048Y-65626109D02*
X95054762Y-65626109D01*
X94911905Y-66126109D02*
X94911905Y-65626109D01*
X95221428Y-66126109D02*
X95221428Y-65626109D01*
X95221428Y-65626109D02*
X95411904Y-65626109D01*
X95411904Y-65626109D02*
X95459523Y-65649919D01*
X95459523Y-65649919D02*
X95483333Y-65673728D01*
X95483333Y-65673728D02*
X95507142Y-65721347D01*
X95507142Y-65721347D02*
X95507142Y-65792776D01*
X95507142Y-65792776D02*
X95483333Y-65840395D01*
X95483333Y-65840395D02*
X95459523Y-65864204D01*
X95459523Y-65864204D02*
X95411904Y-65888014D01*
X95411904Y-65888014D02*
X95221428Y-65888014D01*
X95983333Y-66126109D02*
X95697619Y-66126109D01*
X95840476Y-66126109D02*
X95840476Y-65626109D01*
X95840476Y-65626109D02*
X95792857Y-65697538D01*
X95792857Y-65697538D02*
X95745238Y-65745157D01*
X95745238Y-65745157D02*
X95697619Y-65768966D01*
X81666666Y-78051109D02*
X81500000Y-77813014D01*
X81380952Y-78051109D02*
X81380952Y-77551109D01*
X81380952Y-77551109D02*
X81571428Y-77551109D01*
X81571428Y-77551109D02*
X81619047Y-77574919D01*
X81619047Y-77574919D02*
X81642857Y-77598728D01*
X81642857Y-77598728D02*
X81666666Y-77646347D01*
X81666666Y-77646347D02*
X81666666Y-77717776D01*
X81666666Y-77717776D02*
X81642857Y-77765395D01*
X81642857Y-77765395D02*
X81619047Y-77789204D01*
X81619047Y-77789204D02*
X81571428Y-77813014D01*
X81571428Y-77813014D02*
X81380952Y-77813014D01*
X81857143Y-77598728D02*
X81880952Y-77574919D01*
X81880952Y-77574919D02*
X81928571Y-77551109D01*
X81928571Y-77551109D02*
X82047619Y-77551109D01*
X82047619Y-77551109D02*
X82095238Y-77574919D01*
X82095238Y-77574919D02*
X82119047Y-77598728D01*
X82119047Y-77598728D02*
X82142857Y-77646347D01*
X82142857Y-77646347D02*
X82142857Y-77693966D01*
X82142857Y-77693966D02*
X82119047Y-77765395D01*
X82119047Y-77765395D02*
X81833333Y-78051109D01*
X81833333Y-78051109D02*
X82142857Y-78051109D01*
X84216666Y-63126109D02*
X84050000Y-62888014D01*
X83930952Y-63126109D02*
X83930952Y-62626109D01*
X83930952Y-62626109D02*
X84121428Y-62626109D01*
X84121428Y-62626109D02*
X84169047Y-62649919D01*
X84169047Y-62649919D02*
X84192857Y-62673728D01*
X84192857Y-62673728D02*
X84216666Y-62721347D01*
X84216666Y-62721347D02*
X84216666Y-62792776D01*
X84216666Y-62792776D02*
X84192857Y-62840395D01*
X84192857Y-62840395D02*
X84169047Y-62864204D01*
X84169047Y-62864204D02*
X84121428Y-62888014D01*
X84121428Y-62888014D02*
X83930952Y-62888014D01*
X84692857Y-63126109D02*
X84407143Y-63126109D01*
X84550000Y-63126109D02*
X84550000Y-62626109D01*
X84550000Y-62626109D02*
X84502381Y-62697538D01*
X84502381Y-62697538D02*
X84454762Y-62745157D01*
X84454762Y-62745157D02*
X84407143Y-62768966D01*
X86716666Y-78126109D02*
X86550000Y-77888014D01*
X86430952Y-78126109D02*
X86430952Y-77626109D01*
X86430952Y-77626109D02*
X86621428Y-77626109D01*
X86621428Y-77626109D02*
X86669047Y-77649919D01*
X86669047Y-77649919D02*
X86692857Y-77673728D01*
X86692857Y-77673728D02*
X86716666Y-77721347D01*
X86716666Y-77721347D02*
X86716666Y-77792776D01*
X86716666Y-77792776D02*
X86692857Y-77840395D01*
X86692857Y-77840395D02*
X86669047Y-77864204D01*
X86669047Y-77864204D02*
X86621428Y-77888014D01*
X86621428Y-77888014D02*
X86430952Y-77888014D01*
X87169047Y-77626109D02*
X86930952Y-77626109D01*
X86930952Y-77626109D02*
X86907143Y-77864204D01*
X86907143Y-77864204D02*
X86930952Y-77840395D01*
X86930952Y-77840395D02*
X86978571Y-77816585D01*
X86978571Y-77816585D02*
X87097619Y-77816585D01*
X87097619Y-77816585D02*
X87145238Y-77840395D01*
X87145238Y-77840395D02*
X87169047Y-77864204D01*
X87169047Y-77864204D02*
X87192857Y-77911823D01*
X87192857Y-77911823D02*
X87192857Y-78030871D01*
X87192857Y-78030871D02*
X87169047Y-78078490D01*
X87169047Y-78078490D02*
X87145238Y-78102300D01*
X87145238Y-78102300D02*
X87097619Y-78126109D01*
X87097619Y-78126109D02*
X86978571Y-78126109D01*
X86978571Y-78126109D02*
X86930952Y-78102300D01*
X86930952Y-78102300D02*
X86907143Y-78078490D01*
X96716666Y-77726109D02*
X96550000Y-77488014D01*
X96430952Y-77726109D02*
X96430952Y-77226109D01*
X96430952Y-77226109D02*
X96621428Y-77226109D01*
X96621428Y-77226109D02*
X96669047Y-77249919D01*
X96669047Y-77249919D02*
X96692857Y-77273728D01*
X96692857Y-77273728D02*
X96716666Y-77321347D01*
X96716666Y-77321347D02*
X96716666Y-77392776D01*
X96716666Y-77392776D02*
X96692857Y-77440395D01*
X96692857Y-77440395D02*
X96669047Y-77464204D01*
X96669047Y-77464204D02*
X96621428Y-77488014D01*
X96621428Y-77488014D02*
X96430952Y-77488014D01*
X96883333Y-77226109D02*
X97216666Y-77226109D01*
X97216666Y-77226109D02*
X97002381Y-77726109D01*
X84891666Y-78201109D02*
X84725000Y-77963014D01*
X84605952Y-78201109D02*
X84605952Y-77701109D01*
X84605952Y-77701109D02*
X84796428Y-77701109D01*
X84796428Y-77701109D02*
X84844047Y-77724919D01*
X84844047Y-77724919D02*
X84867857Y-77748728D01*
X84867857Y-77748728D02*
X84891666Y-77796347D01*
X84891666Y-77796347D02*
X84891666Y-77867776D01*
X84891666Y-77867776D02*
X84867857Y-77915395D01*
X84867857Y-77915395D02*
X84844047Y-77939204D01*
X84844047Y-77939204D02*
X84796428Y-77963014D01*
X84796428Y-77963014D02*
X84605952Y-77963014D01*
X85320238Y-77867776D02*
X85320238Y-78201109D01*
X85201190Y-77677300D02*
X85082143Y-78034442D01*
X85082143Y-78034442D02*
X85391666Y-78034442D01*
X93094047Y-67801109D02*
X93094047Y-68205871D01*
X93094047Y-68205871D02*
X93117857Y-68253490D01*
X93117857Y-68253490D02*
X93141666Y-68277300D01*
X93141666Y-68277300D02*
X93189285Y-68301109D01*
X93189285Y-68301109D02*
X93284523Y-68301109D01*
X93284523Y-68301109D02*
X93332142Y-68277300D01*
X93332142Y-68277300D02*
X93355952Y-68253490D01*
X93355952Y-68253490D02*
X93379761Y-68205871D01*
X93379761Y-68205871D02*
X93379761Y-67801109D01*
X93879762Y-68301109D02*
X93594048Y-68301109D01*
X93736905Y-68301109D02*
X93736905Y-67801109D01*
X93736905Y-67801109D02*
X93689286Y-67872538D01*
X93689286Y-67872538D02*
X93641667Y-67920157D01*
X93641667Y-67920157D02*
X93594048Y-67943966D01*
X84116666Y-65426109D02*
X83950000Y-65188014D01*
X83830952Y-65426109D02*
X83830952Y-64926109D01*
X83830952Y-64926109D02*
X84021428Y-64926109D01*
X84021428Y-64926109D02*
X84069047Y-64949919D01*
X84069047Y-64949919D02*
X84092857Y-64973728D01*
X84092857Y-64973728D02*
X84116666Y-65021347D01*
X84116666Y-65021347D02*
X84116666Y-65092776D01*
X84116666Y-65092776D02*
X84092857Y-65140395D01*
X84092857Y-65140395D02*
X84069047Y-65164204D01*
X84069047Y-65164204D02*
X84021428Y-65188014D01*
X84021428Y-65188014D02*
X83830952Y-65188014D01*
X84283333Y-64926109D02*
X84592857Y-64926109D01*
X84592857Y-64926109D02*
X84426190Y-65116585D01*
X84426190Y-65116585D02*
X84497619Y-65116585D01*
X84497619Y-65116585D02*
X84545238Y-65140395D01*
X84545238Y-65140395D02*
X84569047Y-65164204D01*
X84569047Y-65164204D02*
X84592857Y-65211823D01*
X84592857Y-65211823D02*
X84592857Y-65330871D01*
X84592857Y-65330871D02*
X84569047Y-65378490D01*
X84569047Y-65378490D02*
X84545238Y-65402300D01*
X84545238Y-65402300D02*
X84497619Y-65426109D01*
X84497619Y-65426109D02*
X84354762Y-65426109D01*
X84354762Y-65426109D02*
X84307143Y-65402300D01*
X84307143Y-65402300D02*
X84283333Y-65378490D01*
X96916666Y-69178490D02*
X96892857Y-69202300D01*
X96892857Y-69202300D02*
X96821428Y-69226109D01*
X96821428Y-69226109D02*
X96773809Y-69226109D01*
X96773809Y-69226109D02*
X96702381Y-69202300D01*
X96702381Y-69202300D02*
X96654762Y-69154680D01*
X96654762Y-69154680D02*
X96630952Y-69107061D01*
X96630952Y-69107061D02*
X96607143Y-69011823D01*
X96607143Y-69011823D02*
X96607143Y-68940395D01*
X96607143Y-68940395D02*
X96630952Y-68845157D01*
X96630952Y-68845157D02*
X96654762Y-68797538D01*
X96654762Y-68797538D02*
X96702381Y-68749919D01*
X96702381Y-68749919D02*
X96773809Y-68726109D01*
X96773809Y-68726109D02*
X96821428Y-68726109D01*
X96821428Y-68726109D02*
X96892857Y-68749919D01*
X96892857Y-68749919D02*
X96916666Y-68773728D01*
X97369047Y-68726109D02*
X97130952Y-68726109D01*
X97130952Y-68726109D02*
X97107143Y-68964204D01*
X97107143Y-68964204D02*
X97130952Y-68940395D01*
X97130952Y-68940395D02*
X97178571Y-68916585D01*
X97178571Y-68916585D02*
X97297619Y-68916585D01*
X97297619Y-68916585D02*
X97345238Y-68940395D01*
X97345238Y-68940395D02*
X97369047Y-68964204D01*
X97369047Y-68964204D02*
X97392857Y-69011823D01*
X97392857Y-69011823D02*
X97392857Y-69130871D01*
X97392857Y-69130871D02*
X97369047Y-69178490D01*
X97369047Y-69178490D02*
X97345238Y-69202300D01*
X97345238Y-69202300D02*
X97297619Y-69226109D01*
X97297619Y-69226109D02*
X97178571Y-69226109D01*
X97178571Y-69226109D02*
X97130952Y-69202300D01*
X97130952Y-69202300D02*
X97107143Y-69178490D01*
X90616666Y-75578490D02*
X90592857Y-75602300D01*
X90592857Y-75602300D02*
X90521428Y-75626109D01*
X90521428Y-75626109D02*
X90473809Y-75626109D01*
X90473809Y-75626109D02*
X90402381Y-75602300D01*
X90402381Y-75602300D02*
X90354762Y-75554680D01*
X90354762Y-75554680D02*
X90330952Y-75507061D01*
X90330952Y-75507061D02*
X90307143Y-75411823D01*
X90307143Y-75411823D02*
X90307143Y-75340395D01*
X90307143Y-75340395D02*
X90330952Y-75245157D01*
X90330952Y-75245157D02*
X90354762Y-75197538D01*
X90354762Y-75197538D02*
X90402381Y-75149919D01*
X90402381Y-75149919D02*
X90473809Y-75126109D01*
X90473809Y-75126109D02*
X90521428Y-75126109D01*
X90521428Y-75126109D02*
X90592857Y-75149919D01*
X90592857Y-75149919D02*
X90616666Y-75173728D01*
X90783333Y-75126109D02*
X91092857Y-75126109D01*
X91092857Y-75126109D02*
X90926190Y-75316585D01*
X90926190Y-75316585D02*
X90997619Y-75316585D01*
X90997619Y-75316585D02*
X91045238Y-75340395D01*
X91045238Y-75340395D02*
X91069047Y-75364204D01*
X91069047Y-75364204D02*
X91092857Y-75411823D01*
X91092857Y-75411823D02*
X91092857Y-75530871D01*
X91092857Y-75530871D02*
X91069047Y-75578490D01*
X91069047Y-75578490D02*
X91045238Y-75602300D01*
X91045238Y-75602300D02*
X90997619Y-75626109D01*
X90997619Y-75626109D02*
X90854762Y-75626109D01*
X90854762Y-75626109D02*
X90807143Y-75602300D01*
X90807143Y-75602300D02*
X90783333Y-75578490D01*
X92516666Y-75378490D02*
X92492857Y-75402300D01*
X92492857Y-75402300D02*
X92421428Y-75426109D01*
X92421428Y-75426109D02*
X92373809Y-75426109D01*
X92373809Y-75426109D02*
X92302381Y-75402300D01*
X92302381Y-75402300D02*
X92254762Y-75354680D01*
X92254762Y-75354680D02*
X92230952Y-75307061D01*
X92230952Y-75307061D02*
X92207143Y-75211823D01*
X92207143Y-75211823D02*
X92207143Y-75140395D01*
X92207143Y-75140395D02*
X92230952Y-75045157D01*
X92230952Y-75045157D02*
X92254762Y-74997538D01*
X92254762Y-74997538D02*
X92302381Y-74949919D01*
X92302381Y-74949919D02*
X92373809Y-74926109D01*
X92373809Y-74926109D02*
X92421428Y-74926109D01*
X92421428Y-74926109D02*
X92492857Y-74949919D01*
X92492857Y-74949919D02*
X92516666Y-74973728D01*
X92707143Y-74973728D02*
X92730952Y-74949919D01*
X92730952Y-74949919D02*
X92778571Y-74926109D01*
X92778571Y-74926109D02*
X92897619Y-74926109D01*
X92897619Y-74926109D02*
X92945238Y-74949919D01*
X92945238Y-74949919D02*
X92969047Y-74973728D01*
X92969047Y-74973728D02*
X92992857Y-75021347D01*
X92992857Y-75021347D02*
X92992857Y-75068966D01*
X92992857Y-75068966D02*
X92969047Y-75140395D01*
X92969047Y-75140395D02*
X92683333Y-75426109D01*
X92683333Y-75426109D02*
X92992857Y-75426109D01*
X89966666Y-77976109D02*
X89800000Y-77738014D01*
X89680952Y-77976109D02*
X89680952Y-77476109D01*
X89680952Y-77476109D02*
X89871428Y-77476109D01*
X89871428Y-77476109D02*
X89919047Y-77499919D01*
X89919047Y-77499919D02*
X89942857Y-77523728D01*
X89942857Y-77523728D02*
X89966666Y-77571347D01*
X89966666Y-77571347D02*
X89966666Y-77642776D01*
X89966666Y-77642776D02*
X89942857Y-77690395D01*
X89942857Y-77690395D02*
X89919047Y-77714204D01*
X89919047Y-77714204D02*
X89871428Y-77738014D01*
X89871428Y-77738014D02*
X89680952Y-77738014D01*
X90395238Y-77476109D02*
X90300000Y-77476109D01*
X90300000Y-77476109D02*
X90252381Y-77499919D01*
X90252381Y-77499919D02*
X90228571Y-77523728D01*
X90228571Y-77523728D02*
X90180952Y-77595157D01*
X90180952Y-77595157D02*
X90157143Y-77690395D01*
X90157143Y-77690395D02*
X90157143Y-77880871D01*
X90157143Y-77880871D02*
X90180952Y-77928490D01*
X90180952Y-77928490D02*
X90204762Y-77952300D01*
X90204762Y-77952300D02*
X90252381Y-77976109D01*
X90252381Y-77976109D02*
X90347619Y-77976109D01*
X90347619Y-77976109D02*
X90395238Y-77952300D01*
X90395238Y-77952300D02*
X90419047Y-77928490D01*
X90419047Y-77928490D02*
X90442857Y-77880871D01*
X90442857Y-77880871D02*
X90442857Y-77761823D01*
X90442857Y-77761823D02*
X90419047Y-77714204D01*
X90419047Y-77714204D02*
X90395238Y-77690395D01*
X90395238Y-77690395D02*
X90347619Y-77666585D01*
X90347619Y-77666585D02*
X90252381Y-77666585D01*
X90252381Y-77666585D02*
X90204762Y-77690395D01*
X90204762Y-77690395D02*
X90180952Y-77714204D01*
X90180952Y-77714204D02*
X90157143Y-77761823D01*
X96916666Y-70478490D02*
X96892857Y-70502300D01*
X96892857Y-70502300D02*
X96821428Y-70526109D01*
X96821428Y-70526109D02*
X96773809Y-70526109D01*
X96773809Y-70526109D02*
X96702381Y-70502300D01*
X96702381Y-70502300D02*
X96654762Y-70454680D01*
X96654762Y-70454680D02*
X96630952Y-70407061D01*
X96630952Y-70407061D02*
X96607143Y-70311823D01*
X96607143Y-70311823D02*
X96607143Y-70240395D01*
X96607143Y-70240395D02*
X96630952Y-70145157D01*
X96630952Y-70145157D02*
X96654762Y-70097538D01*
X96654762Y-70097538D02*
X96702381Y-70049919D01*
X96702381Y-70049919D02*
X96773809Y-70026109D01*
X96773809Y-70026109D02*
X96821428Y-70026109D01*
X96821428Y-70026109D02*
X96892857Y-70049919D01*
X96892857Y-70049919D02*
X96916666Y-70073728D01*
X97345238Y-70192776D02*
X97345238Y-70526109D01*
X97226190Y-70002300D02*
X97107143Y-70359442D01*
X97107143Y-70359442D02*
X97416666Y-70359442D01*
X90116666Y-67178490D02*
X90092857Y-67202300D01*
X90092857Y-67202300D02*
X90021428Y-67226109D01*
X90021428Y-67226109D02*
X89973809Y-67226109D01*
X89973809Y-67226109D02*
X89902381Y-67202300D01*
X89902381Y-67202300D02*
X89854762Y-67154680D01*
X89854762Y-67154680D02*
X89830952Y-67107061D01*
X89830952Y-67107061D02*
X89807143Y-67011823D01*
X89807143Y-67011823D02*
X89807143Y-66940395D01*
X89807143Y-66940395D02*
X89830952Y-66845157D01*
X89830952Y-66845157D02*
X89854762Y-66797538D01*
X89854762Y-66797538D02*
X89902381Y-66749919D01*
X89902381Y-66749919D02*
X89973809Y-66726109D01*
X89973809Y-66726109D02*
X90021428Y-66726109D01*
X90021428Y-66726109D02*
X90092857Y-66749919D01*
X90092857Y-66749919D02*
X90116666Y-66773728D01*
X90592857Y-67226109D02*
X90307143Y-67226109D01*
X90450000Y-67226109D02*
X90450000Y-66726109D01*
X90450000Y-66726109D02*
X90402381Y-66797538D01*
X90402381Y-66797538D02*
X90354762Y-66845157D01*
X90354762Y-66845157D02*
X90307143Y-66868966D01*
D12*
%TO.C,J1*%
X78070000Y-62330000D02*
X79400000Y-62330000D01*
X78070000Y-63660000D02*
X78070000Y-62330000D01*
X78070000Y-64930000D02*
X78070000Y-77690000D01*
X78070000Y-64930000D02*
X80730000Y-64930000D01*
X78070000Y-77690000D02*
X80730000Y-77690000D01*
X80730000Y-64930000D02*
X80730000Y-77690000D01*
D13*
%TO.C,G\u002A\u002A\u002A*%
G36*
X92627152Y-57260591D02*
G01*
X92856505Y-57326237D01*
X93094966Y-57442756D01*
X93310373Y-57591201D01*
X93470564Y-57752625D01*
X93476879Y-57761154D01*
X93567325Y-57907736D01*
X93664393Y-58098054D01*
X93717196Y-58218405D01*
X93763702Y-58340671D01*
X93795775Y-58453123D01*
X93816068Y-58579009D01*
X93827236Y-58741579D01*
X93831932Y-58964084D01*
X93832820Y-59231288D01*
X93831830Y-59524453D01*
X93826901Y-59737688D01*
X93815095Y-59894943D01*
X93793476Y-60020168D01*
X93759104Y-60137312D01*
X93709044Y-60270326D01*
X93703729Y-60283742D01*
X93539918Y-60605740D01*
X93339622Y-60847996D01*
X93111355Y-61003748D01*
X92863633Y-61066235D01*
X92727131Y-61059191D01*
X92527866Y-60989129D01*
X92394701Y-60850106D01*
X92326012Y-60639842D01*
X92315070Y-60480543D01*
X92315839Y-60469806D01*
X92405319Y-60469806D01*
X92440481Y-60656804D01*
X92530612Y-60795083D01*
X92681628Y-60895262D01*
X92856251Y-60909176D01*
X93066733Y-60837162D01*
X93116657Y-60811142D01*
X93265024Y-60705223D01*
X93397694Y-60570657D01*
X93430704Y-60525787D01*
X93528747Y-60354112D01*
X93618779Y-60158986D01*
X93686919Y-59974387D01*
X93719289Y-59834292D01*
X93720241Y-59816978D01*
X93681978Y-59728338D01*
X93586220Y-59648478D01*
X93464360Y-59595855D01*
X93347793Y-59588928D01*
X93336976Y-59591650D01*
X93246550Y-59639979D01*
X93243355Y-59709184D01*
X93297144Y-59776687D01*
X93359542Y-59892592D01*
X93348712Y-60020156D01*
X93269527Y-60120709D01*
X93252504Y-60130835D01*
X93170326Y-60193272D01*
X93140905Y-60248026D01*
X93116809Y-60326077D01*
X93057714Y-60441603D01*
X93046826Y-60459785D01*
X92961851Y-60567197D01*
X92866694Y-60600364D01*
X92812468Y-60597660D01*
X92710630Y-60569676D01*
X92666981Y-60496176D01*
X92657614Y-60433547D01*
X92663655Y-60382079D01*
X92739147Y-60382079D01*
X92770719Y-60440870D01*
X92842684Y-60447162D01*
X92920911Y-60405669D01*
X92960775Y-60351472D01*
X93003563Y-60219566D01*
X92985542Y-60149231D01*
X92954701Y-60140286D01*
X92872808Y-60178873D01*
X92789326Y-60266939D01*
X92741289Y-60362940D01*
X92739147Y-60382079D01*
X92663655Y-60382079D01*
X92678393Y-60256522D01*
X92772959Y-60125729D01*
X92931568Y-60050719D01*
X93062680Y-60036401D01*
X93194166Y-60030659D01*
X93256170Y-60007707D01*
X93268180Y-59958956D01*
X93266503Y-59946575D01*
X93209325Y-59849872D01*
X93091251Y-59797411D01*
X92934537Y-59795612D01*
X92831982Y-59821254D01*
X92653854Y-59924417D01*
X92518823Y-60081584D01*
X92433706Y-60270723D01*
X92405319Y-60469806D01*
X92315839Y-60469806D01*
X92331055Y-60257305D01*
X92384446Y-60094936D01*
X92408546Y-60053196D01*
X92523731Y-59917206D01*
X92676028Y-59793456D01*
X92832764Y-59704739D01*
X92952587Y-59673656D01*
X93051221Y-59633861D01*
X93089466Y-59530566D01*
X93063744Y-59396598D01*
X93016615Y-59273797D01*
X92957567Y-59117010D01*
X92946790Y-59088090D01*
X92830337Y-58881855D01*
X92672719Y-58748864D01*
X92492777Y-58694965D01*
X92309350Y-58726009D01*
X92148375Y-58840195D01*
X92002592Y-58994501D01*
X92159797Y-58996023D01*
X92266500Y-59009062D01*
X92417751Y-59041724D01*
X92587347Y-59086524D01*
X92749084Y-59135979D01*
X92876758Y-59182604D01*
X92944166Y-59218916D01*
X92945593Y-59220452D01*
X92942835Y-59282186D01*
X92891435Y-59383724D01*
X92809707Y-59496151D01*
X92715964Y-59590548D01*
X92706514Y-59597974D01*
X92592583Y-59656930D01*
X92437317Y-59704682D01*
X92363806Y-59718454D01*
X92136808Y-59750716D01*
X92150514Y-59935700D01*
X92142929Y-60074146D01*
X92096240Y-60244248D01*
X92003577Y-60469968D01*
X91986683Y-60507070D01*
X91828301Y-60891945D01*
X91728033Y-61242059D01*
X91677702Y-61592238D01*
X91667794Y-61865493D01*
X91661618Y-62102835D01*
X91637369Y-62299236D01*
X91586462Y-62483924D01*
X91500312Y-62686131D01*
X91370334Y-62935086D01*
X91334764Y-62999467D01*
X91208382Y-63210099D01*
X91098516Y-63349525D01*
X90985261Y-63441390D01*
X90941679Y-63466396D01*
X90670649Y-63553902D01*
X90384463Y-63542469D01*
X90217003Y-63490441D01*
X90098644Y-63429120D01*
X89994637Y-63340818D01*
X89891302Y-63208361D01*
X89774962Y-63014573D01*
X89651052Y-62779846D01*
X89582380Y-62641750D01*
X89844684Y-62641750D01*
X89860507Y-62774973D01*
X89908201Y-62897031D01*
X89948359Y-62971166D01*
X90122321Y-63207541D01*
X90320407Y-63358188D01*
X90530732Y-63418985D01*
X90741410Y-63385814D01*
X90891076Y-63297929D01*
X91006933Y-63180346D01*
X91122639Y-63025036D01*
X91154168Y-62973287D01*
X91222339Y-62838057D01*
X91254020Y-62716252D01*
X91257742Y-62562069D01*
X91251309Y-62451738D01*
X91228879Y-62276082D01*
X91184660Y-62035108D01*
X91125276Y-61761982D01*
X91064522Y-61516769D01*
X90942365Y-61041501D01*
X90911769Y-60910747D01*
X91183262Y-60910747D01*
X91185542Y-61143300D01*
X91199822Y-61405033D01*
X91223957Y-61659466D01*
X91255802Y-61870117D01*
X91263487Y-61906340D01*
X91302764Y-62079741D01*
X91346470Y-62274367D01*
X91354179Y-62308896D01*
X91398206Y-62465145D01*
X91441681Y-62521347D01*
X91490456Y-62481076D01*
X91524404Y-62412781D01*
X91543949Y-62318904D01*
X91562003Y-62144353D01*
X91576785Y-61912341D01*
X91586512Y-61646077D01*
X91587747Y-61587947D01*
X91600834Y-60879983D01*
X91790553Y-60458459D01*
X91890743Y-60230981D01*
X91950449Y-60079255D01*
X91973244Y-59988677D01*
X91962698Y-59944642D01*
X91922383Y-59932545D01*
X91919153Y-59932515D01*
X91870678Y-59979633D01*
X91834726Y-60101693D01*
X91831641Y-60121763D01*
X91765674Y-60345694D01*
X91642973Y-60490611D01*
X91466566Y-60553350D01*
X91416517Y-60555828D01*
X91295768Y-60561644D01*
X91235203Y-60595536D01*
X91205776Y-60682175D01*
X91195128Y-60743854D01*
X91183262Y-60910747D01*
X90911769Y-60910747D01*
X90849313Y-60643840D01*
X90782699Y-60304308D01*
X90739856Y-60003428D01*
X90718117Y-59721723D01*
X90714816Y-59439713D01*
X90724757Y-59199108D01*
X90845537Y-59199108D01*
X90849253Y-59448638D01*
X90861374Y-59731658D01*
X90880044Y-60015065D01*
X90903404Y-60265758D01*
X90929600Y-60450634D01*
X90933656Y-60470631D01*
X90971173Y-60572786D01*
X91013339Y-60606863D01*
X91040508Y-60562650D01*
X91042838Y-60527383D01*
X91072701Y-60451849D01*
X91099866Y-60410190D01*
X91310676Y-60410190D01*
X91345147Y-60448444D01*
X91428257Y-60443129D01*
X91529551Y-60398861D01*
X91568582Y-60371083D01*
X91626130Y-60291740D01*
X91663053Y-60184978D01*
X91671826Y-60087903D01*
X91644926Y-60037625D01*
X91636439Y-60036401D01*
X91585063Y-60070906D01*
X91501301Y-60154914D01*
X91410656Y-60259160D01*
X91338630Y-60354382D01*
X91310676Y-60410190D01*
X91099866Y-60410190D01*
X91150890Y-60331940D01*
X91257382Y-60197352D01*
X91414029Y-60035201D01*
X91560481Y-59936295D01*
X91705262Y-59882575D01*
X91843939Y-59836136D01*
X91909437Y-59790194D01*
X91917302Y-59733700D01*
X91916914Y-59732136D01*
X91890139Y-59617080D01*
X91866247Y-59505349D01*
X91825156Y-59401624D01*
X91779717Y-59372640D01*
X91992243Y-59372640D01*
X92022006Y-59482108D01*
X92063580Y-59571246D01*
X92130841Y-59611363D01*
X92254982Y-59620777D01*
X92258165Y-59620778D01*
X92423208Y-59597986D01*
X92582510Y-59542024D01*
X92605097Y-59529878D01*
X92734009Y-59432043D01*
X92775266Y-59342165D01*
X92728861Y-59264209D01*
X92605686Y-59205461D01*
X92439708Y-59172337D01*
X92256021Y-59161684D01*
X92212693Y-59163625D01*
X92064578Y-59191018D01*
X91994302Y-59255332D01*
X91992243Y-59372640D01*
X91779717Y-59372640D01*
X91738296Y-59346219D01*
X91674408Y-59329410D01*
X91420432Y-59241631D01*
X91188987Y-59099338D01*
X91012061Y-58922498D01*
X91003372Y-58910512D01*
X90877245Y-58732467D01*
X90852081Y-59016170D01*
X90845537Y-59199108D01*
X90724757Y-59199108D01*
X90727285Y-59137922D01*
X90730963Y-59080538D01*
X90747351Y-58831473D01*
X90760926Y-58617746D01*
X90770274Y-58462091D01*
X90773986Y-58387242D01*
X90773987Y-58387219D01*
X90732291Y-58342829D01*
X90604892Y-58323325D01*
X90551801Y-58322290D01*
X90399397Y-58334621D01*
X90332931Y-58371770D01*
X90329615Y-58387219D01*
X90333322Y-58461988D01*
X90342666Y-58617583D01*
X90356237Y-58831270D01*
X90372624Y-59080313D01*
X90372639Y-59080538D01*
X90387641Y-59387903D01*
X90387348Y-59672013D01*
X90369092Y-59952346D01*
X90330208Y-60248379D01*
X90268029Y-60579591D01*
X90179887Y-60965459D01*
X90063116Y-61425460D01*
X90039080Y-61516769D01*
X89971729Y-61790513D01*
X89913596Y-62061868D01*
X89871307Y-62297668D01*
X89852293Y-62451738D01*
X89844684Y-62641750D01*
X89582380Y-62641750D01*
X89567404Y-62611634D01*
X89511474Y-62477844D01*
X89476177Y-62347927D01*
X89454428Y-62191334D01*
X89439142Y-61977517D01*
X89431341Y-61832536D01*
X89405971Y-61484045D01*
X89364557Y-61200989D01*
X89297802Y-60945213D01*
X89196412Y-60678565D01*
X89096355Y-60457599D01*
X89001544Y-60233176D01*
X88957102Y-60060329D01*
X88954543Y-59984933D01*
X89130090Y-59984933D01*
X89150820Y-60072362D01*
X89208251Y-60220078D01*
X89305955Y-60442685D01*
X89313049Y-60458459D01*
X89502768Y-60879983D01*
X89515855Y-61587947D01*
X89528414Y-61936483D01*
X89550812Y-62210395D01*
X89581445Y-62404723D01*
X89618706Y-62514509D01*
X89660987Y-62534793D01*
X89706683Y-62460618D01*
X89749423Y-62308896D01*
X89791868Y-62119557D01*
X89833463Y-61935551D01*
X89840114Y-61906340D01*
X89873344Y-61709940D01*
X89899326Y-61461877D01*
X89915917Y-61198632D01*
X89920972Y-60956684D01*
X89912344Y-60772516D01*
X89908474Y-60743854D01*
X89883556Y-60625955D01*
X89840373Y-60571733D01*
X89749876Y-60556521D01*
X89687085Y-60555828D01*
X89498225Y-60513305D01*
X89362345Y-60387843D01*
X89282470Y-60182607D01*
X89271960Y-60121763D01*
X89260013Y-60075229D01*
X89435549Y-60075229D01*
X89437049Y-60167083D01*
X89469201Y-60275017D01*
X89525014Y-60362086D01*
X89535020Y-60371083D01*
X89632568Y-60428346D01*
X89726643Y-60451717D01*
X89785928Y-60435811D01*
X89792926Y-60415459D01*
X89763272Y-60355678D01*
X89691076Y-60258212D01*
X89601486Y-60152737D01*
X89519652Y-60068928D01*
X89471691Y-60036401D01*
X89435549Y-60075229D01*
X89260013Y-60075229D01*
X89238648Y-59992011D01*
X89191054Y-59933400D01*
X89184449Y-59932515D01*
X89142490Y-59943186D01*
X89130090Y-59984933D01*
X88954543Y-59984933D01*
X88952940Y-59937696D01*
X88966794Y-59750716D01*
X88836055Y-59732136D01*
X89186688Y-59732136D01*
X89193369Y-59789015D01*
X89257314Y-59835080D01*
X89394068Y-59881378D01*
X89398340Y-59882575D01*
X89564882Y-59947566D01*
X89710569Y-60053980D01*
X89846220Y-60197352D01*
X89955071Y-60335201D01*
X90032280Y-60454337D01*
X90060764Y-60527383D01*
X90075867Y-60602764D01*
X90110815Y-60595355D01*
X90150070Y-60517743D01*
X90169928Y-60438957D01*
X90200186Y-60224688D01*
X90226042Y-59951029D01*
X90245486Y-59653107D01*
X90256506Y-59366055D01*
X90257091Y-59125001D01*
X90251427Y-59015121D01*
X90226357Y-58732467D01*
X90100230Y-58910512D01*
X89927866Y-59088878D01*
X89698944Y-59233971D01*
X89445450Y-59325824D01*
X89429194Y-59329410D01*
X89311160Y-59371621D01*
X89252561Y-59449620D01*
X89237355Y-59505349D01*
X89207601Y-59643315D01*
X89186688Y-59732136D01*
X88836055Y-59732136D01*
X88736636Y-59718007D01*
X88584446Y-59684624D01*
X88457197Y-59636668D01*
X88414788Y-59610568D01*
X88324276Y-59520004D01*
X88237934Y-59407859D01*
X88203789Y-59351038D01*
X88328309Y-59351038D01*
X88383247Y-59443488D01*
X88501376Y-59528207D01*
X88656747Y-59591661D01*
X88823410Y-59620314D01*
X88845437Y-59620778D01*
X88970992Y-59611779D01*
X89039061Y-59572433D01*
X89080837Y-59484422D01*
X89081596Y-59482108D01*
X89117900Y-59322755D01*
X89092105Y-59226613D01*
X88994587Y-59177610D01*
X88890909Y-59163625D01*
X88701427Y-59165199D01*
X88532596Y-59194668D01*
X88403774Y-59245583D01*
X88334319Y-59311496D01*
X88328309Y-59351038D01*
X88203789Y-59351038D01*
X88174523Y-59302336D01*
X88152802Y-59231643D01*
X88156487Y-59222223D01*
X88220527Y-59185942D01*
X88346237Y-59139046D01*
X88507382Y-59089073D01*
X88677725Y-59043560D01*
X88831031Y-59010045D01*
X88941064Y-58996066D01*
X88943805Y-58996023D01*
X89101010Y-58994501D01*
X88955227Y-58840195D01*
X88786040Y-58722647D01*
X88602361Y-58695623D01*
X88423030Y-58753273D01*
X88266886Y-58889748D01*
X88156812Y-59088090D01*
X88098145Y-59244364D01*
X88046911Y-59378483D01*
X88039858Y-59396598D01*
X88014717Y-59539983D01*
X88057749Y-59639271D01*
X88151015Y-59673656D01*
X88282149Y-59709854D01*
X88439097Y-59801408D01*
X88588916Y-59925459D01*
X88692697Y-60049519D01*
X88758963Y-60207982D01*
X88785162Y-60426243D01*
X88786173Y-60476765D01*
X88780156Y-60658584D01*
X88750886Y-60778783D01*
X88687172Y-60878673D01*
X88672584Y-60896055D01*
X88517558Y-61013688D01*
X88376471Y-61059191D01*
X88120746Y-61049257D01*
X87881106Y-60942493D01*
X87666249Y-60745597D01*
X87484871Y-60465269D01*
X87420074Y-60322558D01*
X87370967Y-60196896D01*
X87336501Y-60086907D01*
X87314102Y-59970400D01*
X87301199Y-59825179D01*
X87300629Y-59806478D01*
X87390902Y-59806478D01*
X87406639Y-59933868D01*
X87472612Y-60122308D01*
X87490520Y-60166258D01*
X87628908Y-60451223D01*
X87780354Y-60654867D01*
X87962021Y-60799644D01*
X87985017Y-60813187D01*
X88210780Y-60902803D01*
X88407537Y-60898802D01*
X88555886Y-60814909D01*
X88665004Y-60658986D01*
X88702412Y-60473865D01*
X88675380Y-60278788D01*
X88591179Y-60092998D01*
X88457077Y-59935737D01*
X88280345Y-59826248D01*
X88170123Y-59793833D01*
X88025149Y-59793355D01*
X87905114Y-59839578D01*
X87836190Y-59919736D01*
X87828778Y-59960314D01*
X87855163Y-60009300D01*
X87944466Y-60032547D01*
X88044195Y-60036401D01*
X88237061Y-60070910D01*
X88373005Y-60167700D01*
X88441803Y-60316663D01*
X88445988Y-60433547D01*
X88419819Y-60541224D01*
X88350385Y-60587568D01*
X88291134Y-60597660D01*
X88179195Y-60589225D01*
X88094751Y-60516731D01*
X88056776Y-60459785D01*
X87994069Y-60342452D01*
X87963328Y-60255772D01*
X87962697Y-60248026D01*
X87926407Y-60186059D01*
X87911843Y-60175379D01*
X88102585Y-60175379D01*
X88113390Y-60277545D01*
X88142827Y-60351472D01*
X88203967Y-60421258D01*
X88283695Y-60450963D01*
X88347585Y-60434429D01*
X88364455Y-60391104D01*
X88331293Y-60295814D01*
X88255609Y-60198674D01*
X88173105Y-60142778D01*
X88156657Y-60140286D01*
X88102585Y-60175379D01*
X87911843Y-60175379D01*
X87851098Y-60130835D01*
X87760139Y-60037596D01*
X87745715Y-59909863D01*
X87810498Y-59771494D01*
X87810831Y-59771065D01*
X87859547Y-59670421D01*
X87837247Y-59602468D01*
X87759278Y-59573562D01*
X87640987Y-59590059D01*
X87514083Y-59648164D01*
X87426389Y-59718467D01*
X87390902Y-59806478D01*
X87300629Y-59806478D01*
X87295218Y-59629053D01*
X87294043Y-59435163D01*
X87343516Y-59435163D01*
X87347857Y-59565416D01*
X87363578Y-59618960D01*
X87365365Y-59619207D01*
X87428433Y-59589372D01*
X87491352Y-59541293D01*
X87593424Y-59490218D01*
X87729383Y-59465466D01*
X87748031Y-59465031D01*
X87858964Y-59458004D01*
X87906900Y-59421098D01*
X87917963Y-59330575D01*
X87918058Y-59310536D01*
X87894844Y-59181025D01*
X87809821Y-59091665D01*
X87786355Y-59076794D01*
X87653135Y-59019547D01*
X87531909Y-58997546D01*
X87450804Y-58984959D01*
X87453597Y-58945876D01*
X87454994Y-58944219D01*
X87544233Y-58898329D01*
X87683928Y-58883864D01*
X87838810Y-58903217D01*
X87880971Y-58915312D01*
X87976521Y-58927557D01*
X88045201Y-58870137D01*
X88075996Y-58820018D01*
X88124598Y-58706620D01*
X88118546Y-58599680D01*
X88095635Y-58527305D01*
X87992696Y-58363616D01*
X87835421Y-58257307D01*
X87652307Y-58226991D01*
X87637915Y-58228346D01*
X87547763Y-58250594D01*
X87492564Y-58310326D01*
X87449197Y-58436493D01*
X87438422Y-58478119D01*
X87409044Y-58629836D01*
X87383319Y-58825537D01*
X87362792Y-59041085D01*
X87349009Y-59252340D01*
X87343516Y-59435163D01*
X87294043Y-59435163D01*
X87293586Y-59359827D01*
X87293573Y-59231288D01*
X87294909Y-58922585D01*
X87299992Y-58696272D01*
X87310985Y-58530870D01*
X87330053Y-58404901D01*
X87359358Y-58296886D01*
X87398210Y-58192434D01*
X87449639Y-58080465D01*
X87605580Y-58080465D01*
X87644165Y-58105258D01*
X87728339Y-58114714D01*
X87885311Y-58155932D01*
X88049707Y-58262246D01*
X88185019Y-58408316D01*
X88210924Y-58449668D01*
X88295278Y-58558936D01*
X88371440Y-58565507D01*
X88445330Y-58469262D01*
X88457129Y-58444767D01*
X88508123Y-58238923D01*
X88504108Y-57997375D01*
X88451364Y-57758417D01*
X88356173Y-57560342D01*
X88301303Y-57494884D01*
X88260189Y-57471359D01*
X88360802Y-57471359D01*
X88423876Y-57545530D01*
X88553181Y-57725024D01*
X88618782Y-57970982D01*
X88625422Y-58238634D01*
X88620507Y-58406046D01*
X88633103Y-58497536D01*
X88669509Y-58540247D01*
X88698052Y-58551623D01*
X88808639Y-58535182D01*
X88922417Y-58433540D01*
X89028366Y-58264061D01*
X89115464Y-58044105D01*
X89170135Y-57807904D01*
X89188297Y-57700986D01*
X89198490Y-57672993D01*
X89202000Y-57731272D01*
X89200112Y-57883169D01*
X89198213Y-57968390D01*
X89188778Y-58186300D01*
X89168834Y-58329752D01*
X89132267Y-58428047D01*
X89089125Y-58491165D01*
X89009683Y-58602345D01*
X89001153Y-58661976D01*
X89065197Y-58684077D01*
X89112170Y-58685547D01*
X89297950Y-58635275D01*
X89464225Y-58493253D01*
X89600667Y-58271067D01*
X89679960Y-58048734D01*
X89739459Y-57828834D01*
X89743873Y-58052171D01*
X89731094Y-58231899D01*
X89693897Y-58394545D01*
X89682930Y-58422568D01*
X89594627Y-58569690D01*
X89475371Y-58705899D01*
X89351762Y-58805211D01*
X89253824Y-58841718D01*
X89183044Y-58875173D01*
X89175301Y-58958224D01*
X89232368Y-59064902D01*
X89238118Y-59071750D01*
X89344627Y-59141005D01*
X89489155Y-59135773D01*
X89683407Y-59055622D01*
X89683996Y-59055311D01*
X89851300Y-58928845D01*
X90006585Y-58746509D01*
X90125174Y-58542141D01*
X90178556Y-58377161D01*
X90184920Y-58299890D01*
X90916410Y-58299890D01*
X90925046Y-58377161D01*
X90990147Y-58577314D01*
X91104934Y-58764357D01*
X91253153Y-58926285D01*
X91418552Y-59051096D01*
X91584879Y-59126785D01*
X91735882Y-59141348D01*
X91855307Y-59082783D01*
X91865484Y-59071750D01*
X91926655Y-58964459D01*
X91922904Y-58879173D01*
X91856005Y-58841864D01*
X91849778Y-58841718D01*
X91746963Y-58802156D01*
X91623005Y-58700794D01*
X91504506Y-58563615D01*
X91420672Y-58422568D01*
X91379428Y-58273960D01*
X91359922Y-58091972D01*
X91359729Y-58052171D01*
X91364143Y-57828834D01*
X91423642Y-58048734D01*
X91529525Y-58325581D01*
X91673329Y-58531332D01*
X91844721Y-58654402D01*
X91991432Y-58685547D01*
X92085346Y-58674660D01*
X92094876Y-58654952D01*
X92975538Y-58654952D01*
X92995630Y-58757294D01*
X93027606Y-58820018D01*
X93097040Y-58912878D01*
X93176294Y-58927742D01*
X93222631Y-58915312D01*
X93375370Y-58885843D01*
X93523011Y-58890876D01*
X93630287Y-58928020D01*
X93648608Y-58944219D01*
X93653958Y-58984155D01*
X93575498Y-58997534D01*
X93571693Y-58997546D01*
X93442165Y-59022133D01*
X93317247Y-59076794D01*
X93218749Y-59163293D01*
X93186185Y-59282625D01*
X93185544Y-59310536D01*
X93193277Y-59411336D01*
X93233894Y-59454892D01*
X93333519Y-59464945D01*
X93355571Y-59465031D01*
X93491887Y-59484783D01*
X93602029Y-59533151D01*
X93612250Y-59541293D01*
X93694447Y-59601294D01*
X93738236Y-59619207D01*
X93753039Y-59572092D01*
X93759000Y-59444388D01*
X93755484Y-59258951D01*
X93750853Y-59166360D01*
X93731278Y-58924599D01*
X93703342Y-58691266D01*
X93672355Y-58509021D01*
X93665179Y-58478119D01*
X93621258Y-58332501D01*
X93570844Y-58260002D01*
X93490814Y-58231670D01*
X93465687Y-58228346D01*
X93281763Y-58252021D01*
X93121479Y-58353125D01*
X93013328Y-58513048D01*
X93007967Y-58527305D01*
X92975538Y-58654952D01*
X92094876Y-58654952D01*
X92106013Y-58631919D01*
X92055093Y-58543309D01*
X92014477Y-58491165D01*
X91961013Y-58407650D01*
X91928863Y-58301457D01*
X91911913Y-58143284D01*
X91905389Y-57968390D01*
X91901762Y-57778398D01*
X91903036Y-57684860D01*
X91910498Y-57680428D01*
X91925432Y-57757757D01*
X91933467Y-57807904D01*
X91992939Y-58059374D01*
X92081576Y-58276617D01*
X92188357Y-58442271D01*
X92302261Y-58538974D01*
X92405550Y-58551623D01*
X92455969Y-58522941D01*
X92479482Y-58458821D01*
X92482388Y-58332121D01*
X92478180Y-58238634D01*
X92482378Y-58132615D01*
X92590852Y-58132615D01*
X92616374Y-58359224D01*
X92646473Y-58444767D01*
X92720545Y-58557189D01*
X92795957Y-58566777D01*
X92878630Y-58473649D01*
X92892678Y-58449668D01*
X93014452Y-58297413D01*
X93174800Y-58178328D01*
X93337213Y-58117752D01*
X93375263Y-58114714D01*
X93464371Y-58099517D01*
X93498022Y-58066562D01*
X93464184Y-57976629D01*
X93376106Y-57852912D01*
X93253946Y-57719056D01*
X93117862Y-57598705D01*
X93068376Y-57562577D01*
X92943953Y-57485322D01*
X92866408Y-57462473D01*
X92810277Y-57487551D01*
X92802299Y-57494884D01*
X92690096Y-57662151D01*
X92617520Y-57887493D01*
X92590852Y-58132615D01*
X92482378Y-58132615D01*
X92490337Y-57931648D01*
X92564933Y-57695479D01*
X92679726Y-57545530D01*
X92744156Y-57468449D01*
X92734389Y-57417349D01*
X92645584Y-57388083D01*
X92482644Y-57376707D01*
X92086966Y-57415424D01*
X91704990Y-57543430D01*
X91356469Y-57752004D01*
X91100651Y-57986831D01*
X90988388Y-58119107D01*
X90931351Y-58213734D01*
X90916410Y-58299890D01*
X90184920Y-58299890D01*
X90186719Y-58278047D01*
X90162706Y-58192516D01*
X90093388Y-58091385D01*
X90002951Y-57986831D01*
X89698539Y-57716471D01*
X89343835Y-57519247D01*
X88958592Y-57403878D01*
X88620958Y-57376707D01*
X88452196Y-57388998D01*
X88367090Y-57419167D01*
X88360802Y-57471359D01*
X88260189Y-57471359D01*
X88246484Y-57463517D01*
X88173912Y-57478690D01*
X88058440Y-57546929D01*
X88032034Y-57564754D01*
X87907921Y-57666708D01*
X87783417Y-57796326D01*
X87679122Y-57928695D01*
X87615639Y-58038902D01*
X87605580Y-58080465D01*
X87449639Y-58080465D01*
X87484102Y-58005433D01*
X87583008Y-57827473D01*
X87626931Y-57761154D01*
X87783000Y-57599713D01*
X87996028Y-57450187D01*
X88233898Y-57331502D01*
X88464493Y-57262581D01*
X88476449Y-57260591D01*
X88825266Y-57254009D01*
X89187459Y-57334516D01*
X89542076Y-57493299D01*
X89868162Y-57721550D01*
X90084619Y-57936765D01*
X90212164Y-58080586D01*
X90304794Y-58164744D01*
X90388868Y-58205131D01*
X90490748Y-58217638D01*
X90551801Y-58218405D01*
X90671011Y-58213470D01*
X90760114Y-58188071D01*
X90845470Y-58126317D01*
X90953441Y-58012315D01*
X91018983Y-57936765D01*
X91309244Y-57661476D01*
X91644009Y-57448937D01*
X92002325Y-57307960D01*
X92363237Y-57247355D01*
X92627152Y-57260591D01*
G37*
G36*
X91087478Y-62262760D02*
G01*
X91053555Y-62333839D01*
X90969024Y-62432876D01*
X90859741Y-62534201D01*
X90751562Y-62612144D01*
X90718170Y-62629403D01*
X90632126Y-62683138D01*
X90613526Y-62761708D01*
X90623886Y-62827493D01*
X90679679Y-63001259D01*
X90762858Y-63086865D01*
X90836265Y-63101818D01*
X90898271Y-63110137D01*
X90878488Y-63141881D01*
X90864279Y-63152965D01*
X90783792Y-63181290D01*
X90649679Y-63199555D01*
X90551801Y-63203317D01*
X90402009Y-63194536D01*
X90282998Y-63172012D01*
X90239323Y-63152965D01*
X90202924Y-63114531D01*
X90246808Y-63102271D01*
X90267337Y-63101818D01*
X90373953Y-63065804D01*
X90446220Y-62950622D01*
X90479716Y-62827493D01*
X90488365Y-62718623D01*
X90440330Y-62657191D01*
X90385432Y-62629403D01*
X90283899Y-62566004D01*
X90172044Y-62470071D01*
X90075722Y-62367274D01*
X90020789Y-62283283D01*
X90016124Y-62262760D01*
X90052047Y-62258567D01*
X90143407Y-62292524D01*
X90205843Y-62323280D01*
X90458615Y-62411377D01*
X90704933Y-62399247D01*
X90897759Y-62323280D01*
X91008510Y-62272298D01*
X91076860Y-62255308D01*
X91087478Y-62262760D01*
G37*
G36*
X89167970Y-57517178D02*
G01*
X89145650Y-57543149D01*
X89123330Y-57517178D01*
X89145650Y-57491207D01*
X89167970Y-57517178D01*
G37*
G36*
X91980272Y-57517178D02*
G01*
X91957952Y-57543149D01*
X91935632Y-57517178D01*
X91957952Y-57491207D01*
X91980272Y-57517178D01*
G37*
D12*
%TO.C,TP1*%
X96350000Y-67500000D02*
G75*
G02*
X94450000Y-67500000I-950000J0D01*
G01*
X94450000Y-67500000D02*
G75*
G02*
X96350000Y-67500000I950000J0D01*
G01*
%TO.C,R2*%
X82602500Y-75712742D02*
X82602500Y-76187258D01*
X83647500Y-75712742D02*
X83647500Y-76187258D01*
%TO.C,J2*%
X99845000Y-71980000D02*
X99845000Y-69380000D01*
X99845000Y-74580000D02*
X99845000Y-73250000D01*
X101175000Y-74580000D02*
X99845000Y-74580000D01*
X102505000Y-69380000D02*
X99845000Y-69380000D01*
X102505000Y-71980000D02*
X99845000Y-71980000D01*
X102505000Y-71980000D02*
X102505000Y-69380000D01*
%TO.C,R1*%
X86537258Y-62777500D02*
X86062742Y-62777500D01*
X86537258Y-63822500D02*
X86062742Y-63822500D01*
%TO.C,R5*%
X86277500Y-75687742D02*
X86277500Y-76162258D01*
X87322500Y-75687742D02*
X87322500Y-76162258D01*
%TO.C,R7*%
X95822500Y-77462742D02*
X95822500Y-77937258D01*
X94777500Y-77462742D02*
X94777500Y-77937258D01*
%TO.C,R4*%
X84477500Y-75687742D02*
X84477500Y-76162258D01*
X85522500Y-75687742D02*
X85522500Y-76162258D01*
%TO.C,U1*%
X90815000Y-69415000D02*
X90815000Y-69205000D01*
X90815000Y-72185000D02*
X90815000Y-71735000D01*
X91265000Y-68965000D02*
X91115000Y-68965000D01*
X91265000Y-72185000D02*
X90815000Y-72185000D01*
X93585000Y-68965000D02*
X94035000Y-68965000D01*
X93585000Y-72185000D02*
X94035000Y-72185000D01*
X94035000Y-68965000D02*
X94035000Y-69415000D01*
X94035000Y-72185000D02*
X94035000Y-71735000D01*
X90815000Y-68965000D02*
X90575000Y-68635000D01*
X91055000Y-68635000D01*
X90815000Y-68965000D01*
G36*
X90815000Y-68965000D02*
G01*
X90575000Y-68635000D01*
X91055000Y-68635000D01*
X90815000Y-68965000D01*
G37*
%TO.C,R3*%
X86537258Y-64677500D02*
X86062742Y-64677500D01*
X86537258Y-65722500D02*
X86062742Y-65722500D01*
%TO.C,R6*%
X88177500Y-75687742D02*
X88177500Y-76162258D01*
X89222500Y-75687742D02*
X89222500Y-76162258D01*
%TD*%
M02*
